<svg viewBox="0 0 330 200" xmlns="http://www.w3.org/2000/svg"><g><g><g><g><g><line x1="40" y1="177" x2="35" y2="177" style="visibility: inherit;" fill="rgb(0, 0, 0)" stroke="rgb(204, 204, 204)" stroke-width="1px"></line><line x1="40" y1="159.3" x2="35" y2="159.3" style="visibility: inherit;" fill="rgb(0, 0, 0)" stroke="rgb(204, 204, 204)" stroke-width="1px"></line><line x1="40" y1="141.6" x2="35" y2="141.6" style="visibility: inherit;" fill="rgb(0, 0, 0)" stroke="rgb(204, 204, 204)" stroke-width="1px"></line><line x1="40" y1="123.89999999999999" x2="35" y2="123.89999999999999" style="visibility: inherit;" fill="rgb(0, 0, 0)" stroke="rgb(204, 204, 204)" stroke-width="1px"></line><line x1="40" y1="106.2" x2="35" y2="106.2" style="visibility: inherit;" fill="rgb(0, 0, 0)" stroke="rgb(204, 204, 204)" stroke-width="1px"></line><line x1="40" y1="88.5" x2="35" y2="88.5" style="visibility: inherit;" fill="rgb(0, 0, 0)" stroke="rgb(204, 204, 204)" stroke-width="1px"></line><line x1="40" y1="70.8" x2="35" y2="70.8" style="visibility: inherit;" fill="rgb(0, 0, 0)" stroke="rgb(204, 204, 204)" stroke-width="1px"></line><line x1="40" y1="53.10000000000001" x2="35" y2="53.10000000000001" style="visibility: inherit;" fill="rgb(0, 0, 0)" stroke="rgb(204, 204, 204)" stroke-width="1px"></line><line x1="40" y1="35.39999999999999" x2="35" y2="35.39999999999999" style="visibility: inherit;" fill="rgb(0, 0, 0)" stroke="rgb(204, 204, 204)" stroke-width="1px"></line><line x1="40" y1="17.699999999999996" x2="35" y2="17.699999999999996" style="visibility: inherit;" fill="rgb(0, 0, 0)" stroke="rgb(204, 204, 204)" stroke-width="1px"></line><line x1="40" y1="0" x2="35" y2="0" style="visibility: inherit;" fill="rgb(0, 0, 0)" stroke="rgb(204, 204, 204)" stroke-width="1px"></line></g><g transform="translate(30, 0)"><text x="0" y="177" dx="0em" dy="0.3em" style="text-anchor: end; visibility: hidden; font-family: Roboto, sans-serif; font-size: 12px; font-weight: 200;" fill="rgb(255, 255, 255)" stroke="none" stroke-width="1px">550</text><text x="0" y="159.3" dx="0em" dy="0.3em" style="text-anchor: end; visibility: inherit; font-family: Roboto, sans-serif; font-size: 12px; font-weight: 200;" fill="rgb(255, 255, 255)" stroke="none" stroke-width="1px">555</text><text x="0" y="141.6" dx="0em" dy="0.3em" style="text-anchor: end; visibility: hidden; font-family: Roboto, sans-serif; font-size: 12px; font-weight: 200;" fill="rgb(255, 255, 255)" stroke="none" stroke-width="1px">560</text><text x="0" y="123.89999999999999" dx="0em" dy="0.3em" style="text-anchor: end; visibility: inherit; font-family: Roboto, sans-serif; font-size: 12px; font-weight: 200;" fill="rgb(255, 255, 255)" stroke="none" stroke-width="1px">565</text><text x="0" y="106.2" dx="0em" dy="0.3em" style="text-anchor: end; visibility: hidden; font-family: Roboto, sans-serif; font-size: 12px; font-weight: 200;" fill="rgb(255, 255, 255)" stroke="none" stroke-width="1px">570</text><text x="0" y="88.5" dx="0em" dy="0.3em" style="text-anchor: end; visibility: inherit; font-family: Roboto, sans-serif; font-size: 12px; font-weight: 200;" fill="rgb(255, 255, 255)" stroke="none" stroke-width="1px">575</text><text x="0" y="70.8" dx="0em" dy="0.3em" style="text-anchor: end; visibility: hidden; font-family: Roboto, sans-serif; font-size: 12px; font-weight: 200;" fill="rgb(255, 255, 255)" stroke="none" stroke-width="1px">580</text><text x="0" y="53.10000000000001" dx="0em" dy="0.3em" style="text-anchor: end; visibility: inherit; font-family: Roboto, sans-serif; font-size: 12px; font-weight: 200;" fill="rgb(255, 255, 255)" stroke="none" stroke-width="1px">585</text><text x="0" y="35.39999999999999" dx="0em" dy="0.3em" style="text-anchor: end; visibility: hidden; font-family: Roboto, sans-serif; font-size: 12px; font-weight: 200;" fill="rgb(255, 255, 255)" stroke="none" stroke-width="1px">590</text><text x="0" y="17.699999999999996" dx="0em" dy="0.3em" style="text-anchor: end; visibility: inherit; font-family: Roboto, sans-serif; font-size: 12px; font-weight: 200;" fill="rgb(255, 255, 255)" stroke="none" stroke-width="1px">595</text><text x="0" y="0" dx="0em" dy="0.3em" style="text-anchor: end; visibility: hidden; font-family: Roboto, sans-serif; font-size: 12px; font-weight: 200;" fill="rgb(255, 255, 255)" stroke="none" stroke-width="1px">600</text></g><line x1="40" y1="0" x2="40" y2="177" fill="rgb(0, 0, 0)" stroke="rgb(204, 204, 204)" stroke-width="1px"></line></g></g><g transform="translate(40, 0)" clip-path="url(#clip_0)"><clipPath id="clip_0"><rect width="290" height="177"></rect></clipPath><g><g><g><line x1="0" y1="0" x2="0" y2="177" fill="rgb(0, 0, 0)" stroke="rgb(189, 189, 189)" stroke-width="1px" opacity="0.25"></line><line x1="24.166666666666664" y1="0" x2="24.166666666666664" y2="177" fill="rgb(0, 0, 0)" stroke="rgb(189, 189, 189)" stroke-width="1px" opacity="0.25"></line><line x1="48.33333333333333" y1="0" x2="48.33333333333333" y2="177" fill="rgb(0, 0, 0)" stroke="rgb(189, 189, 189)" stroke-width="1px" opacity="0.25"></line><line x1="72.5" y1="0" x2="72.5" y2="177" fill="rgb(0, 0, 0)" stroke="rgb(189, 189, 189)" stroke-width="1px" opacity="0.25"></line><line x1="96.66666666666666" y1="0" x2="96.66666666666666" y2="177" fill="rgb(0, 0, 0)" stroke="rgb(189, 189, 189)" stroke-width="1px" opacity="0.25"></line><line x1="120.83333333333334" y1="0" x2="120.83333333333334" y2="177" fill="rgb(0, 0, 0)" stroke="rgb(189, 189, 189)" stroke-width="1px" opacity="0.25"></line><line x1="145" y1="0" x2="145" y2="177" fill="rgb(0, 0, 0)" stroke="rgb(189, 189, 189)" stroke-width="1px" opacity="0.25"></line><line x1="169.16666666666669" y1="0" x2="169.16666666666669" y2="177" fill="rgb(0, 0, 0)" stroke="rgb(189, 189, 189)" stroke-width="1px" opacity="0.25"></line><line x1="193.33333333333331" y1="0" x2="193.33333333333331" y2="177" fill="rgb(0, 0, 0)" stroke="rgb(189, 189, 189)" stroke-width="1px" opacity="0.25"></line><line x1="217.5" y1="0" x2="217.5" y2="177" fill="rgb(0, 0, 0)" stroke="rgb(189, 189, 189)" stroke-width="1px" opacity="0.25"></line><line x1="241.66666666666669" y1="0" x2="241.66666666666669" y2="177" fill="rgb(0, 0, 0)" stroke="rgb(189, 189, 189)" stroke-width="1px" opacity="0.25"></line><line x1="265.8333333333333" y1="0" x2="265.8333333333333" y2="177" fill="rgb(0, 0, 0)" stroke="rgb(189, 189, 189)" stroke-width="1px" opacity="0.25"></line><line x1="290" y1="0" x2="290" y2="177" fill="rgb(0, 0, 0)" stroke="rgb(189, 189, 189)" stroke-width="1px" opacity="0.25"></line></g><g><line x1="0" y1="177" x2="290" y2="177" fill="rgb(0, 0, 0)" stroke="rgb(189, 189, 189)" stroke-width="1px" opacity="0.25"></line><line x1="0" y1="159.3" x2="290" y2="159.3" fill="rgb(0, 0, 0)" stroke="rgb(189, 189, 189)" stroke-width="1px" opacity="0.25"></line><line x1="0" y1="141.6" x2="290" y2="141.6" fill="rgb(0, 0, 0)" stroke="rgb(189, 189, 189)" stroke-width="1px" opacity="0.25"></line><line x1="0" y1="123.89999999999999" x2="290" y2="123.89999999999999" fill="rgb(0, 0, 0)" stroke="rgb(189, 189, 189)" stroke-width="1px" opacity="0.25"></line><line x1="0" y1="106.2" x2="290" y2="106.2" fill="rgb(0, 0, 0)" stroke="rgb(189, 189, 189)" stroke-width="1px" opacity="0.25"></line><line x1="0" y1="88.5" x2="290" y2="88.5" fill="rgb(0, 0, 0)" stroke="rgb(189, 189, 189)" stroke-width="1px" opacity="0.25"></line><line x1="0" y1="70.8" x2="290" y2="70.8" fill="rgb(0, 0, 0)" stroke="rgb(189, 189, 189)" stroke-width="1px" opacity="0.25"></line><line x1="0" y1="53.10000000000001" x2="290" y2="53.10000000000001" fill="rgb(0, 0, 0)" stroke="rgb(189, 189, 189)" stroke-width="1px" opacity="0.25"></line><line x1="0" y1="35.39999999999999" x2="290" y2="35.39999999999999" fill="rgb(0, 0, 0)" stroke="rgb(189, 189, 189)" stroke-width="1px" opacity="0.25"></line><line x1="0" y1="17.699999999999996" x2="290" y2="17.699999999999996" fill="rgb(0, 0, 0)" stroke="rgb(189, 189, 189)" stroke-width="1px" opacity="0.25"></line><line x1="0" y1="0" x2="290" y2="0" fill="rgb(0, 0, 0)" stroke="rgb(189, 189, 189)" stroke-width="1px" opacity="0.25"></line></g></g></g><g><g><line x1="0" y1="2124" x2="290" y2="2124" fill="rgb(0, 0, 0)" stroke="rgb(153, 153, 153)" stroke-width="1.5px"></line></g></g><g><g><line x1="24.166666666666664" y1="0" x2="24.166666666666664" y2="177" fill="rgb(0, 0, 0)" stroke="rgb(153, 153, 153)" stroke-width="1.5px"></line></g></g><g><g><g><g><g><path stroke="rgb(255, 112, 67)" stroke-width="2px" d="M25.330533333333335,-7.080000000000006L25.912466666666667,39.95447552116562L26.4944,50.11355156842393L27.076333333333334,49.29768950717147L27.65826666666667,44.98276791385103L28.240199999999998,39.816600197765204L28.822133333333333,34.80185668424687L29.40406666666667,30.295346229097838L29.986,26.384057671225854L30.567933333333333,25.38480935927794L31.149866666666668,23.75280428715965L31.7318,22.321029860683446L32.2451,22.469256045276847L32.31373333333333,22.558117381088458L32.82703333333333,22.61140743501905L32.89566666666666,13.791873581207572L33.40896666666667,8.501108791538446L33.4776,5.3269938297921655L33.990899999999996,6.02822193588578L34.059533333333334,6.448942390855445L34.572833333333335,6.7013687569919025L34.641466666666666,6.852822450271147L34.96143333333333,20.3674098511813L35.2234,35.315444951371695L35.543366666666664,44.284238812915454L35.697066666666665,56.20742511992179L35.99673333333333,63.361329094030545L36.278999999999996,67.65366866686507L36.57866666666666,70.22907139837949L36.85803333333333,75.79579123367148L37.1606,79.1358226622746L37.43996666666666,79.08662396610909L37.742533333333334,79.05710474991334L38.0219,79.03939322073741L38.32446666666667,79.02876630342666L38.603833333333334,79.0223901531103L38.9064,79.01856446294543L39.089099999999995,79.42687793648963L39.48833333333333,79.67186602003387L39.671033333333334,79.8188588699509L39.87886666666666,95.45479335683828L40.21913333333334,104.83635404415536L40.4608,110.46529045481186L40.80106666666667,111.23717427296747L40.93736666666667,116.92534802116653L41.362700000000004,124.20390461375395L41.516400000000004,128.57103856913156L41.944633333333336,117.76766659836458L42.098333333333336,104.44633921672354L42.52656666666666,96.45354278780799L42.68026666666666,85.11595184452703L43.1085,78.31339727857915L43.2622,74.23186453901847L43.69043333333333,71.7829448952843L43.84413333333333,66.29220150748124L44.27236666666667,62.99775547480043L44.426066666666664,61.021087855192356L44.8543,59.83508728342792L45.008,59.123486940369176L45.436233333333334,58.69652673453409L45.589933333333335,58.44035061103303L46.01816666666667,58.286644936932404L46.17186666666667,56.77842153247153L46.6001,55.873487489795906L46.7538,55.33052706418972L47.18203333333333,39.457012039295236L47.33573333333333,29.932903024358314L47.76396666666667,24.218437615396482L47.86063333333333,28.464540596581315L48.3459,25.787158928261285L48.442566666666664,20.314991157737705L48.83793333333334,18.64595123761114L49.0245,17.64452728553584L49.419866666666664,17.043672914290244L49.606433333333335,16.68316029154274L50.001799999999996,16.466852717894312L50.18836666666667,16.337068173705408L50.583733333333335,16.259197447192157L50.7703,16.212475011284138L51.16566666666667,16.184441549739223L51.35223333333333,16.167621472812133L51.7476,16.157529426655937L51.89356666666667,18.30382185521224L52.163266666666665,23.726293113127188L52.4755,26.97977586787647L52.7452,28.931865520725957L53.05743333333333,30.103119312435496L53.327133333333336,30.805871587461226L53.63936666666667,34.07369678060157L53.84526666666667,40.239870412111024L54.2213,43.939574591016545L54.427200000000006,46.159397098359996L54.55286666666667,58.12546443089115L55.00913333333333,57.630409029628275L55.134800000000006,57.33337578887072L55.53403333333333,62.196112387384936L55.71673333333333,63.4994936043058L56.115966666666665,64.28152233445832L56.29866666666666,65.20386994364365L56.6979,65.75727850915494L56.80036666666667,73.49497599221179L57.2315,78.13759448204584L57.3823,80.92316557594609L57.81343333333333,82.59450823228649L57.96423333333333,83.59731382609048L58.39536666666667,84.19899718237319L58.546166666666664,84.56000719614252L58.87676666666667,87.07052629034192L59.09523333333333,84.44214194608006L59.4587,82.86511133952305L59.67716666666667,81.91889297558875L59.9662,93.528813812697L60.25136666666666,100.49476631496219L60.54813333333334,101.82816398819622L60.8333,98.42263765073024L61.130066666666664,96.3793218482508L61.41523333333333,95.15333236676283L61.711999999999996,83.78356484974536L61.997166666666665,76.9617043395348L62.267833333333336,74.07223988887688L62.48726666666666,73.3156046755138L62.58876666666667,89.88188477796484L62.950300000000006,99.82165283943532L63.1707,105.33246973100478L63.4317,111.92400381125903L63.752633333333335,108.47327191566174L64.01363333333333,106.40283277830314L64.33456666666667,105.16056929588821L64.59556666666667,104.4152112064391L64.9165,103.9679963527698L65.17266666666667,108.76897163978663L65.48876666666666,115.10460026902815L65.7546,114.45971670438564L66.0707,114.07278656560014L66.33653333333334,113.840628482329L66.4419,121.05037708939749L66.86336666666666,120.47683514035755L67.00836666666667,120.1327099709336L67.4453,119.92623486927899L67.5903,119.80234980828614L68.02723333333333,119.72801877169043L68.16256666666666,123.81820237629528L68.60916666666667,126.27231253905833L68.6981,129.03330060937233L69.13696666666667,132.26163270937317L69.25103333333333,130.60202308265505L69.68313333333333,119.00043113474928L69.7769,119.58678016522467L69.91706666666667,119.9385895835098L70.35883333333334,116.86454486338728L70.4439,115.94046617584486L70.9166,120.95088859222577L71.02583333333334,123.95714204205396L71.49853333333333,125.76089411195096L71.60776666666666,126.84314535388951L72.08046666666667,122.42327832561479L72.18583333333333,116.37292353833746L72.6595,120.23331955269013L72.7552,122.54955716130159L73.24143333333333,123.93929972646878L73.33713333333333,117.42410180853743L73.82336666666666,106.2368087413724L73.91906666666668,99.52443290107313L74.40530000000001,95.49700739689354L74.501,93.0805520943858L74.96403333333333,92.01294014335039L75.08293333333333,87.23767717194765L75.53823333333334,91.28260630316859L75.6523,92.42104180924483L76.12016666666668,90.3287119996094L76.23423333333332,86.65192300054673L76.7021,78.03141454251553L76.81616666666667,65.31180526847791L77.19123333333333,60.710300446242904L77.31496666666668,62.93365878337075L77.77316666666667,63.34732564111596L77.8969,58.03065612685707L78.18593333333334,61.991437133145176L78.45563333333332,64.36790573691852L78.76786666666666,65.79378689918204L79.03756666666668,66.64931559654016L79.34979999999999,67.10602392823625L79.6195,59.8893536147541L79.93173333333334,55.559351426665124L80.19369999999999,58.54039357084265L80.51366666666667,60.32901885734934L80.77273333333332,63.667845884722276L81.0956,65.67114210114619L81.35466666666667,67.73685908881286L81.67753333333333,68.9762892814124L81.79256666666666,77.8477735688476L82.0642,83.17066414130865L82.37450000000001,79.45431157072244L82.64613333333334,77.22450002837064L82.95256666666666,80.1629607592099L83.22806666666666,81.92603719771336L83.5345,82.98388306081527L83.80999999999999,83.61859057867635L84.11643333333333,80.9691543472058L84.39193333333334,74.39514495207357L84.69836666666667,70.45073931499405L84.97386666666667,68.08409593274659L85.2803,59.513327188554285L85.5558,54.370865942038975L85.86223333333334,51.28538919412972L86.07103333333333,54.998972774290344L86.44416666666666,57.22712292238655L86.60366666666665,63.236795726088005L87.02610000000001,66.84259940830897L87.18560000000001,63.42703816061062L87.60803333333334,61.377701411991204L87.76753333333333,57.882533933132386L88.18996666666666,55.78543344581693L88.34076666666667,54.51299932530283L88.7719,53.74953885299412L88.9227,44.78128874148381L89.35383333333333,39.40033867457795L89.50463333333333,36.17176863443435L89.93576666666667,34.23462661034819L90.08656666666667,28.79608016542767L90.40653333333333,30.7438219273816L90.6685,35.32498895721029L90.74390000000001,48.863602261045095L91.25043333333332,56.98677024334571L91.32583333333334,61.860671032726344L91.83236666666667,64.78501150635456L91.90776666666666,66.53961579053133L92.4143,67.59237836103748L92.4897,68.22403590334123L92.99623333333334,68.60303042872349L93.07163333333332,63.26555751504676L93.48826666666668,63.334030309809144L93.65356666666668,58.702331271823134L93.94550000000001,63.14487727871881L94.18426666666667,65.81040488285636L94.52743333333333,67.40972144533882L94.7662,68.36931138282829L95.10936666666666,68.94506534532182L95.34813333333334,68.44095229313075L95.6913,68.1384844618161L95.93006666666666,67.95700376302702L96.22586666666668,75.14054991406637L96.512,79.45067760469013L96.8078,82.03675421906394L97.09393333333333,83.58840018768868L97.2341,82.86260554230087L97.67586666666668,79.01460678241178L97.81603333333334,65.91589444054065L98.23363333333334,65.46231937916798L98.39796666666668,65.19017434234469L98.72566666666665,71.34227843353182L98.9799,75.03354088824418L99.13553333333334,83.7052549040404L99.5222,100.23628331351806L99.71746666666667,110.15490035920469L99.88953333333333,121.7842444147417L100.2994,125.4908943050952L100.40090000000001,134.80905806743235L100.73633333333333,139.94682595374059L100.98283333333333,143.02948668552568L101.30569999999999,145.06317003865925L101.56476666666667,146.28338005053922L101.88763333333334,147.01550605766712L102.1467,147.4547816619441L102.46956666666667,147.71834702451022L102.72863333333332,147.8764862420498L102.91133333333333,150.49180483116746L103.24773333333333,152.06099598463823L103.49326666666666,153.0025106767205L103.82966666666667,153.56741949196982L104.0752,150.35219095299453L104.4116,148.4230538296093L104.59043333333334,154.69957155557825L104.95486666666666,151.05982984740936L105.17236666666666,148.87598482250803L105.5368,141.25028669428607L105.7543,136.67486781735275L105.96116666666667,135.13326834666157L106.29853333333334,122.88030866424678L106.5431,115.52853285479816L106.88046666666666,105.43929354100372L107.12503333333333,99.3857499527274L107.4624,88.65944997163629L107.70696666666666,75.45514849860693L108.04433333333333,67.53256761478899L108.28890000000001,62.59501859621706L108.55666666666667,69.02048967335517L108.7007,79.16281577666926L109.08833333333332,87.71212403631414L109.28263333333332,92.84170899210106L109.67026666666666,95.91945996557321L109.86456666666666,87.95315449496884L110.24156666666667,91.68354504073109L110.37206666666667,94.48821393850098L110.8235,96.17101527716301L110.954,97.18069608036039L111.40543333333332,97.7865045622789L111.53593333333333,90.71598965142992L111.98736666666667,86.47368070492053L112.11786666666666,83.92829533701497L112.52096666666667,87.18715103033415L112.69980000000001,89.14246444632548L112.9695,89.21113101154538L113.23436666666666,89.25233095067739L113.4045,97.78722474228135L113.7554,102.90816101724381L113.98643333333334,105.98072278222138L114.33733333333333,107.8242598412078L114.56836666666666,108.93038207659971L114.89703333333333,112.92170727330362L115.15029999999999,115.31650239132611L115.47896666666668,107.3652925480769L115.73223333333334,96.30752318509631L116.0609,87.20903539543279L116.31416666666667,81.74994272163467L116.59450000000001,83.21805254704338L116.8961,84.09891844228854L117.17643333333334,76.11726415131054L117.35526666666667,76.53914120562999L117.75836666666666,76.79226743822174L117.93719999999999,76.94414317777688L118.3403,77.03526862150987L118.51913333333333,77.08994388774984L118.85166666666666,83.76379250452506L119.10106666666667,87.76810167459011L119.4336,85.38460026256656L119.683,83.95449941535267L120.01553333333332,76.54035199296153L120.26493333333333,72.091863539527L120.59746666666668,60.91259663934129L120.84686666666667,54.20503649922961L121.1794,50.180500415162605L121.4288,47.765778764722484L121.76133333333334,46.31694577445864L122.01073333333333,42.12008055061253L122.34326666666666,39.601961416304945L122.59266666666667,38.09108993572054L122.92519999999999,37.18456704736966L123.1746,36.640653314359135L123.50713333333334,36.31430507455283L123.75653333333334,31.374930700981846L124.08906666666667,28.41130607683927L124.33846666666666,26.633131302353892L124.671,19.78892223844375L124.87303333333334,23.399614085253905L125.1669,25.566029193339997L125.45496666666666,26.865878258191348L125.74883333333332,27.6457876971023L126.0369,21.472689903417468L126.33076666666666,17.768831227206732L126.61883333333333,15.546516021480132L126.9127,14.213126898044498L127.11763333333333,21.172745767733094L127.25200000000001,30.502777831733457L127.69956666666666,36.10079707013391L127.83393333333333,39.459608613174325L128.2815,41.474895538998275L128.41586666666666,42.6840676944928L128.8151,49.00278827294584L128.99393333333333,52.79402062001735L129.39703333333333,55.068760028260336L129.57586666666666,56.43360367320596L129.97896666666668,57.252509860173255L130.1578,57.74385357235363L130.54543333333334,65.69918177231827L130.73973333333333,70.47237869229738L130.9437,80.38794918803467L131.32166666666666,86.33729148547707L131.44443333333334,94.66472254753606L131.7093,106.59952932930274L131.9819,113.7604133983629L132.29123333333334,118.0569438397993L132.56383333333332,120.63486210466085L132.87316666666666,122.18161306357791L133.14576666666667,123.10966363892832L133.27143333333333,129.75527669898216L133.7277,133.74264453501436L133.85336666666666,128.37541289288387L134.2787,128.5109869935429L134.3947,130.107461825032L134.68276666666668,137.64978129423795L134.97663333333333,142.17517297576128L135.2647,144.89040798467568L135.55856666666665,140.92633170486806L135.84663333333333,138.54788593698325L136.1405,137.12081847625237L136.42856666666665,136.26457799981375L136.72243333333333,135.75083371395093L137.0105,135.4425871424332L137.30436666666668,127.5970308010851L137.59243333333333,122.88969699627597L137.8863,113.01364436964035L138.17436666666669,107.0880127936591L138.45953333333333,99.14306841838298L138.69346666666667,87.43766722290488L138.99893333333333,85.38460033374292L139.10526666666667,84.15276020024584L139.54703333333333,90.89017760452242L139.64563333333334,102.66393273458853L140.1193,111.31409889856562L140.20533333333333,110.41541588210804L140.70123333333333,109.87620607223376L140.78726666666665,109.55268018630882L141.0212,109.3585646547542L141.29283333333333,116.23713879285243L141.49003333333332,113.7798487053992L141.87476666666666,112.30547465292686L142.07196666666667,111.42085022144379L142.4567,110.89007556255362L142.6539,110.5716107672196L143.03863333333334,111.95235757361309L143.23583333333335,112.78080565744926L143.62056666666666,113.27787450775097L143.81776666666667,113.57611581793199L144.20250000000001,113.75506060404012L144.3997,113.86242747570518L144.78443333333334,113.92684759870401L144.98163333333332,113.96549967250367L145.58193333333335,122.92364745975235L146.16386666666665,123.32836230397625L146.7458,108.36336503863609L147.32773333333333,97.79845359349423L147.90966666666668,91.75681141390928L148.4916,71.11156487568917L149.07353333333333,58.724416952757565L149.65546666666668,51.29212819899828L150.2171,52.27014654830491L150.23739999999998,51.285218300076615L150.79903333333334,50.69426135113955L150.81933333333333,50.339687181777485L151.1973,53.114681937972655L151.40126666666666,54.779678791689676L151.61200000000002,58.79476381798264L151.9832,61.20381483375842L152.19393333333332,62.64924544322379L152.56513333333334,47.28911269562178L152.77586666666667,38.073033047060896L153.14706666666666,32.54338525792435L153.3578,29.22559658444219L153.729,27.234923380352583L153.90106666666668,32.6957367430553L154.3109333333333,35.97222476067693L154.48299999999998,37.93811757124974L154.86386666666667,49.25626165603109L155.06493333333333,56.047148106899904L155.44580000000002,60.121679977421195L155.64686666666668,62.566399099733964L155.76963333333333,68.62105674499631L156.2288,72.25385133215372L156.35156666666666,74.43352808444831L156.71696666666668,83.13281265145024L156.9074,82.91499179008882L157.29889999999997,82.78429927327204L157.48933333333335,82.70588376318221L157.88083333333333,82.658834457128L158.07126666666665,79.64277918990197L158.46276666666668,77.83314602956618L158.6532,73.7313656450833L159.01569999999998,78.6476021018939L159.22643333333332,81.59734397598L159.59763333333333,82.574232557463L159.80836666666667,83.1603657063527L160.10996666666665,89.2893497949053L160.3903,92.96674024803694L160.4251,103.68334834804091L160.88426666666666,108.45653098148087L160.98383333333334,118.95270130373237L161.32989999999998,132.95344695411458L161.55996666666664,130.91798125840654L161.8306333333333,134.25626678238754L162.04813333333334,144.7693254991197L162.1709,159.58733455728424L162.49376666666666,170.24813999218281L162.7296333333333,177.77740596796576L168.2048333333333,179.66830543389557L168.4745333333333,171.73341783064998L168.7645333333333,163.91387687026514L169.05453333333332,153.34580414950284L169.34646666666666,140.64704791938928L169.63646666666668,131.89501146647717L169.9284,122.94805033691763L170.16039999999998,120.65256945996292L170.46586666666667,123.24006364863368L170.53643333333332,120.72864707589905L170.8419,127.7319709603831L171.11353333333335,138.90066109185477L171.32716666666667,145.60187517073786L171.69546666666668,149.62260361806796L171.90910000000002,152.03504068646546L172.25613333333334,154.58702441187944L172.49103333333332,148.27360576040883L172.8380666666667,140.54903308515154L173.07006666666666,141.7482025659346L173.42,133.9575304262795L173.652,129.28312714248645L174.00193333333334,126.47848517221048L174.23393333333334,124.79569999004502L174.58386666666667,123.78602888074577L174.81586666666666,117.02066078547854L175.1658,112.96143992831821L175.33303333333333,116.91208124214734L175.66653333333332,114.36890108903835L175.9149666666667,110.2092537393605L176.24846666666667,107.71346532955396L176.46403333333333,110.16660117038853L176.76756666666665,114.64048218660828L177.04596666666666,110.65541968305907L177.25186666666667,107.2873387238981L177.6279,100.82022940621385L177.8338,88.42978998747832L178.09769999999997,80.78317819170542L178.35773333333336,89.66138494236701L178.51336666666668,94.98830899276403L178.93966666666665,98.18446342300224L179.09529999999998,98.9976345967701L179.40656666666666,103.49284150024963L179.5796,112.49118292749363L179.9856,113.245666299465L180.16153333333332,113.69835632264767L180.56753333333333,113.96997033655752L180.74346666666668,114.13293874490334L181.0093,124.59585016100449L181.26739999999998,137.8969881239464L181.56706666666665,145.8776709017115L181.84933333333333,150.66608056837072L182.01173333333332,158.41016982539728L182.31333333333333,162.51853646555085L182.59366666666668,164.9835564496431L182.89526666666666,166.46256844009835L183.1756,163.3992803218717L183.4772,160.3152205368729L183.75753333333333,158.4647846658736L184.0591333333333,154.3667838854615L184.26793333333333,160.41815724533947L184.5009,165.28089434720368L184.84986666666668,161.44418895207212L185.08283333333333,145.6759918868682L185.4318,136.21507364774592L185.66476666666668,130.53852270427262L186.01373333333333,127.13259213818857L186.2467,121.08181602510065L186.57536666666664,116.37517652912274L186.82863333333333,112.36171480419254L187.1573,109.95363776923429L187.41056666666665,108.50879154825948L187.73923333333335,107.64188381567443L187.9925,96.75660880502983L188.15393333333333,89.92813911114305L188.57443333333333,85.83105729481099L188.73586666666668,83.37280820501128L189.15636666666666,70.64064146597542L189.31779999999998,63.00134142255417L189.65226666666666,63.65697868165758L189.87943333333334,64.34766572461962L190.2081,71.04912140742827L190.42173333333335,73.31416864523806L190.79003333333333,74.673196987924L191.00366666666665,75.48861399353548L191.36229999999998,69.25186419690229L191.5856,64.27790123298522L191.88526666666667,65.07421925541605L192.10566666666665,74.06218389699954L192.3106,79.4549626819499L192.6876,82.69062995291985L192.89253333333332,84.63203031550184L193.26953333333333,85.79687053305109L193.47446666666667,81.27073120654948L193.85146666666668,78.55504761064844L194.0564,76.92563745310774L194.43339999999998,75.94799135858348L194.63833333333335,75.361403701869L195.01533333333333,77.06266839299649L195.22026666666665,73.39647066470414L195.59726666666668,71.1967520277288L195.8022,69.87692084554386L196.17919999999998,69.0850221362329L196.37833333333333,71.9941436528334L196.76113333333333,68.50039927763754L196.8752,73.86650030877011L197.21836666666667,70.7991174704184L197.45713333333333,68.95868776740713L197.5644333333333,73.24938648856951L198.0265,83.42771880720422L198.14636666666667,87.7505443702601L198.60843333333332,90.34423970809381L198.72830000000002,88.11976111001245L199.19036666666668,78.27490012303872L199.31023333333331,72.36798353085449L199.7723,71.57087703257544L199.89216666666667,71.09261313360791L200.35423333333335,70.80565479422692L200.4741,70.63347979059867L200.93616666666665,70.53017478842138L201.05603333333335,70.46819178711499L201.5181,70.43100198633167L201.63796666666667,70.4086881058615L202.10003333333336,68.34208249242297L202.2199,65.06307566732896L202.68196666666665,63.095671572272366L202.80183333333335,61.91522911523827L203.2639,61.2069636410178L203.38376666666665,57.39774361429825L203.84583333333333,55.11221159826653L203.9657,45.981240044897504L204.42776666666668,45.203787483969826L204.54763333333332,44.73731594741315L205.00969999999998,39.062476482510235L205.12956666666668,28.053659717630982L205.59163333333333,21.901500029797663L205.7115,18.210204217097672L206.1735666666667,15.99542672947768L206.29343333333333,14.666560236905678L206.68203333333332,17.409240341362246L206.85893333333334,16.307804947004758L207.26396666666668,15.646943710390687L207.44086666666666,15.250426968421912L207.8459,15.012516923240815L208.0228,14.86977089613183L208.29153333333335,17.85681908064777L208.60473333333334,21.220787249169675L208.87346666666664,23.239168150282968L209.18666666666667,24.45019669095103L209.28913333333335,32.44090072941428L209.74056666666667,39.14697500796107L209.84786666666668,43.170619575089226L210.3225,45.58480631536596L210.4298,47.033318359532075L210.90443333333334,47.902425586031896L210.97306666666665,56.19771609380671L211.35296666666667,62.56254274222146L211.5376,66.38143873127045L211.9349,68.67277632469953L212.11953333333335,70.0475788807573L212.51683333333332,70.41933004329822L212.70146666666665,70.64238074082284L212.97600000000003,76.01542844449354L213.2834,79.23925706669597L213.55793333333332,77.63355424001765L213.86533333333335,76.67013254401068L214.13986666666668,76.61599261234407L214.44726666666665,76.58350865334377L214.7218,76.56401827794392L215.0292,76.55232405270385L215.30373333333333,73.47261171677825L215.61113333333333,70.0530450574107L215.88566666666665,68.00130506179016L216.19306666666668,66.77026106441784L216.4676,58.767547751932035L216.775,52.05426790897149L217.04953333333336,48.026300003195225L217.35693333333333,47.3229103730108L217.63146666666665,46.90087659490032L217.93886666666668,46.647656328034095L218.2134,38.721897996039296L218.52079999999998,27.877660281998338L218.79533333333333,21.37111765357417L219.10273333333333,17.467192076519815L219.37726666666666,15.124836730287043L219.68466666666666,13.719423522547231L219.9592,12.876175597903343L220.2666,7.131009557960599L220.54113333333333,3.683909933995106L220.84853333333334,1.615650159615657L221.01383333333334,8.884868123113222L221.3164,12.722399389492857L221.5957666666667,15.024918149320621L221.89833333333334,18.148168174748548L222.1777,20.022118190005536L222.48026666666667,21.146488199159734L222.75963333333334,21.821110204652083L223.0622,22.22588340794743L223.34156666666667,22.468747329924454L223.64413333333334,23.803857284673356L223.9235,24.60492325752268L224.22606666666664,25.085562841232523L224.50543333333334,23.66064190395843L224.808,22.80568934159412L225.08736666666667,22.29271780417539L225.38993333333335,21.984934881723824L225.57456666666667,25.538439444659367L225.93416666666667,33.915150580858125L226.10333333333332,38.941177262577305L226.48323333333332,46.969402158327554L226.68526666666668,51.78633709577786L227.06516666666667,54.67649805824812L227.2672,56.410594635730206L227.48566666666667,65.9612264103443L227.83270000000002,71.69160547511265L228.0676,66.61965908584878L228.41463333333334,63.576491252290346L228.64953333333332,61.750590552155536L228.9057,62.750788901605816L229.23146666666668,63.35090791127599L229.42576666666665,69.98384894598426L229.63070000000002,81.7232659105593L229.96903333333333,90.60769880414784L230.21263333333332,95.93835854030112L230.55096666666665,97.94736278043092L230.79456666666667,99.15276532450855L231.1329,99.87600685095529L231.3765,100.30995176682309L231.71483333333333,100.57031871634386L231.95843333333332,100.72653888605656L232.29676666666666,100.82027098788386L232.54036666666667,97.13824950679273L232.8787,88.68442821970031L233.10683333333333,87.50613544744519L233.46063333333333,81.78655089737329L233.68876666666668,78.35480016733023L234.04256666666666,76.29574972930438L234.2504,82.74918909539512L234.52396666666667,78.30933962911232L234.76080000000002,80.70056032043631L235.0943,82.1352927352306L235.3427333333333,82.99613218410704L235.45003333333335,92.02280968155814L235.84539999999998,95.81038160971598L236.03196666666665,98.08292476661083L236.42733333333334,93.17358103184156L236.6139,82.4683224472302L237.00926666666666,74.20438458161952L237.19583333333333,69.24602186225296L237.53996666666666,71.94909163297677L237.77776666666668,73.57093349541074L238.1219,74.54403861287129L238.3597,75.12790168334745L238.6062,76.90839335375847L238.94163333333333,77.97668835600524L239.18813333333333,78.61766535735298L239.52356666666668,79.00225155816194L239.77006666666668,79.23300327864709L240.0900333333333,82.68493233828193L240.352,84.75608977406273L240.50086666666667,92.22913238006272L240.93393333333333,96.71295794366289L241.0828,91.71438365291648L241.51586666666665,88.51706476206247L241.66473333333334,81.54354305645631L242.0978,79.78073472059253L242.24666666666667,78.72304971907411L242.67973333333336,72.09878637441322L242.8286,65.91527182464793L243.26166666666666,62.20516309478844L243.41053333333335,59.97909785687322L243.8436,58.6434587141241L243.99246666666664,57.84207522847431L244.23413333333332,65.87141896520957L244.528,65.01085137912582L244.75613333333334,73.00468465560057L245.07706666666667,77.80098462148567L245.3380666666667,80.6787646010164L245.659,80.97525876060983L245.92,81.15315525636582L246.17133333333334,93.23928426710081L246.48260000000002,100.4909616735419L246.7532666666667,104.84196811740655L246.9031,107.86318087044408L247.1438,109.6759085222663L247.48503333333335,104.53311054304734L247.72573333333335,101.44743175551599L247.97899999999998,113.23211139705968L248.2825333333333,127.99178881089196L248.5358,136.84759525919176L248.86446666666666,139.73977444067123L249.09646666666666,142.7636039222154L249.23083333333335,149.802945068173L249.6252333333333,154.0265497557473L249.81276666666668,156.56071256829196L250.20716666666667,158.081210255819L250.3947,158.9935088683349L250.7891,159.54088803584477L250.97663333333333,151.35914170822562L251.37103333333334,146.45009391165436L251.55856666666668,134.99457783136776L251.95296666666667,128.12126818319598L252.11053333333334,132.50736979663643L252.37153333333333,137.10729150688795L252.64123333333333,147.65524453303894L252.95346666666666,142.00462523544837L253.22316666666666,139.26564477017536L253.5354,137.62225649101163L253.8051,129.01813660945047L253.99263333333334,132.3658385086392L254.35513333333333,134.37445964815228L254.57456666666667,135.5796323318601L254.93706666666665,122.66664902802263L255.07626666666667,108.40529361603217L255.40009999999998,105.97969814227538L255.65820000000002,104.52434085802165L255.98203333333333,102.362604514813L256.24013333333335,93.3200841932627L256.56396666666666,87.89457200033287L256.79693333333336,92.31396048535582L257.0618,94.96559357636991L257.3788666666667,96.5565734309781L257.64373333333333,97.51116134374294L257.9608,98.08391409140211L258.22566666666665,98.42756573999759L258.54273333333333,98.63375672915473L258.7728,106.53129749452393L259.12466666666666,102.75964812562076L259.35473333333334,98.52839776209113L259.59253333333334,93.38425594241077L259.7878,90.29777085060255L260.17446666666666,87.7944886822367L260.3136666666667,87.31208432262342L260.6955,94.68316367951164L260.89076666666665,90.59563746551939L261.1653,95.71877359259288L261.47270000000003,98.79265526883675L261.71726666666666,104.43185390348954L262.0546333333333,106.64006888506255L262.2992,101.83369367478754L262.6365666666667,98.94986854862276L262.8811333333333,97.21957347292366L263.2185,96.7053095134416L263.4630666666667,96.39675113775256L263.80043333333333,90.08039833890139L264.045,86.2905866595905L264.38236666666666,84.0166996520043L264.62693333333334,82.65236744745258L264.9643,81.83376812472139L265.20886666666667,81.34260853108252L265.54623333333336,81.04791277489943L265.7908,73.09726914931457" style="fill: none;" fill="none"></path></g></g></g></g><g opacity="0.2"><g><g><g><path stroke="rgb(255, 112, 67)" stroke-width="2px" d="M25.330533333333335,-7.080000000000006L25.912466666666667,85.10757202148437L26.4944,62.060624999999995L27.076333333333334,48.232499999999995L27.65826666666667,39.01367797851562L28.240199999999998,32.428897705078136L28.822133333333333,27.490312499999995L29.40406666666667,23.64911865234375L29.986,20.576249999999995L30.567933333333333,23.895000000000003L31.149866666666668,21.31367797851562L31.7318,20.178043212890632L32.2451,22.691304931640627L32.31373333333333,22.691304931640627L32.82703333333333,22.691304931640627L32.89566666666666,0.5663049316406258L33.40896666666667,0.5663049316406258L33.4776,0.5663049316406258L33.990899999999996,7.080000000000006L34.059533333333334,7.080000000000006L34.572833333333335,7.080000000000006L34.641466666666666,7.080000000000006L34.96143333333333,40.639130859375L35.2234,57.73739135742186L35.543366666666664,57.73739135742186L35.697066666666665,74.09217407226562L35.99673333333333,74.09217407226562L36.278999999999996,74.09217407226562L36.57866666666666,74.09217407226562L36.85803333333333,84.145869140625L37.1606,84.145869140625L37.43996666666666,79.01282592773437L37.742533333333334,79.01282592773437L38.0219,79.01282592773437L38.32446666666667,79.01282592773437L38.603833333333334,79.01282592773437L38.9064,79.01282592773437L39.089099999999995,80.03934814453125L39.48833333333333,80.03934814453125L39.671033333333334,80.03934814453125L39.87886666666666,118.90869506835936L40.21913333333334,118.90869506835936L40.4608,118.90869506835936L40.80106666666667,112.395L40.93736666666667,125.45760864257812L41.362700000000004,135.12173950195313L41.516400000000004,135.12173950195313L41.944633333333336,101.56260864257811L42.098333333333336,84.46434814453126L42.52656666666666,84.46434814453126L42.68026666666666,68.10956542968749L43.1085,68.10956542968749L43.2622,68.10956542968749L43.69043333333333,68.10956542968749L43.84413333333333,58.05608642578124L44.27236666666667,58.05608642578124L44.426066666666664,58.05608642578124L44.8543,58.05608642578124L45.008,58.05608642578124L45.436233333333334,58.05608642578124L45.589933333333335,58.05608642578124L46.01816666666667,58.05608642578124L46.17186666666667,54.51608642578126L46.6001,54.51608642578126L46.7538,54.51608642578126L47.18203333333333,15.646739501953126L47.33573333333333,15.646739501953126L47.76396666666667,15.646739501953126L47.86063333333333,34.83369506835937L48.3459,21.77108642578125L48.442566666666664,12.106739501953124L48.83793333333334,16.142391357421868L49.0245,16.142391357421868L49.419866666666664,16.142391357421868L49.606433333333335,16.142391357421868L50.001799999999996,16.142391357421868L50.18836666666667,16.142391357421868L50.583733333333335,16.142391357421868L50.7703,16.142391357421868L51.16566666666667,16.142391357421868L51.35223333333333,16.142391357421868L51.7476,16.142391357421868L51.89356666666667,21.523260498046866L52.163266666666665,31.86000000000001L52.4755,31.86000000000001L52.7452,31.86000000000001L53.05743333333333,31.86000000000001L53.327133333333336,31.86000000000001L53.63936666666667,38.9754345703125L53.84526666666667,49.48913085937499L54.2213,49.48913085937499L54.427200000000006,49.48913085937499L54.55286666666667,76.0745654296875L55.00913333333333,56.88782592773437L55.134800000000006,56.88782592773437L55.53403333333333,69.49021728515626L55.71673333333333,65.45456542968749L56.115966666666665,65.45456542968749L56.29866666666666,66.58739135742188L56.6979,66.58739135742188L56.80036666666667,85.10152221679688L57.2315,85.10152221679688L57.3823,85.10152221679688L57.81343333333333,85.10152221679688L57.96423333333333,85.10152221679688L58.39536666666667,85.10152221679688L58.546166666666664,85.10152221679688L58.87676666666667,90.83630493164063L59.09523333333333,80.49956542968751L59.4587,80.49956542968751L59.67716666666667,80.49956542968751L59.9662,110.94369506835938L60.25136666666666,110.94369506835938L60.54813333333334,103.82826049804689L60.8333,93.31434814453124L61.130066666666664,93.31434814453124L61.41523333333333,93.31434814453124L61.711999999999996,66.72891357421875L61.997166666666665,66.72891357421875L62.267833333333336,69.73804321289062L62.48726666666666,72.18065185546875L62.58876666666667,114.73130493164062L62.950300000000006,114.73130493164062L63.1707,113.59869506835938L63.4317,121.81130493164062L63.752633333333335,103.29717407226563L64.01363333333333,103.29717407226563L64.33456666666667,103.29717407226563L64.59556666666667,103.29717407226563L64.9165,103.29717407226563L65.17266666666667,115.97043457031249L65.48876666666666,124.60804321289062L65.7546,113.49239135742188L66.0707,113.49239135742188L66.33653333333334,113.49239135742188L66.4419,131.865L66.86336666666666,119.61652221679687L67.00836666666667,119.61652221679687L67.4453,119.61652221679687L67.5903,119.61652221679687L68.02723333333333,119.61652221679687L68.16256666666666,129.9534777832031L68.60916666666667,129.9534777832031L68.6981,133.17478271484376L69.13696666666667,137.104130859375L69.25103333333333,128.11260864257812L69.68313333333333,101.59804321289063L69.7769,120.4663037109375L69.91706666666667,120.4663037109375L70.35883333333334,112.25347778320312L70.4439,114.55434814453126L70.9166,128.46652221679688L71.02583333333334,128.46652221679688L71.49853333333333,128.46652221679688L71.60776666666666,128.46652221679688L72.08046666666667,115.79347778320313L72.18583333333333,107.29739135742187L72.6595,126.02391357421875L72.7552,126.02391357421875L73.24143333333333,126.02391357421875L73.33713333333333,107.65130493164062L73.82336666666666,89.455869140625L73.91906666666668,89.455869140625L74.40530000000001,89.455869140625L74.501,89.455869140625L74.96403333333333,90.41152221679685L75.08293333333333,80.07478271484376L75.53823333333334,97.35000000000001L75.6523,94.12869506835938L76.12016666666668,87.19021728515625L76.23423333333332,81.13673950195313L76.7021,65.10065185546875L76.81616666666667,46.232391357421875L77.19123333333333,53.808043212890624L77.31496666666668,66.2686962890625L77.77316666666667,63.96782592773438L77.8969,50.055651855468746L78.18593333333334,67.93260864257813L78.45563333333332,67.93260864257813L78.76786666666666,67.93260864257813L79.03756666666668,67.93260864257813L79.34979999999999,67.79108642578124L79.6195,49.064348144531245L79.93173333333334,49.064348144531245L80.19369999999999,63.01195678710938L80.51366666666667,63.01195678710938L80.77273333333332,68.67608642578125L81.0956,68.67608642578125L81.35466666666667,70.83543457031249L81.67753333333333,70.83543457031249L81.79256666666666,91.155L82.0642,91.155L82.37450000000001,73.87978271484376L82.64613333333334,73.87978271484376L82.95256666666666,84.57065185546875L83.22806666666666,84.57065185546875L83.5345,84.57065185546875L83.80999999999999,84.57065185546875L84.11643333333333,76.995L84.39193333333334,64.534130859375L84.69836666666667,64.534130859375L84.97386666666667,64.534130859375L85.2803,46.65717407226562L85.5558,46.65717407226562L85.86223333333334,46.65717407226562L86.07103333333333,60.569348144531254L86.44416666666666,60.569348144531254L86.60366666666665,72.25130493164063L87.02610000000001,72.25130493164063L87.18560000000001,58.30369628906249L87.60803333333334,58.30369628906249L87.76753333333333,52.639782714843754L88.18996666666666,52.639782714843754L88.34076666666667,52.604348144531244L88.7719,52.604348144531244L88.9227,31.328913574218742L89.35383333333333,31.328913574218742L89.50463333333333,31.328913574218742L89.93576666666667,31.328913574218742L90.08656666666667,20.638260498046865L90.40653333333333,33.6654345703125L90.6685,42.19673950195313L90.74390000000001,69.17152221679689L91.25043333333332,69.17152221679689L91.32583333333334,69.17152221679689L91.83236666666667,69.17152221679689L91.90776666666666,69.17152221679689L92.4143,69.17152221679689L92.4897,69.17152221679689L92.99623333333334,69.17152221679689L93.07163333333332,55.25934814453125L93.48826666666668,63.43673950195313L93.65356666666668,51.754782714843756L93.94550000000001,69.8086962890625L94.18426666666667,69.8086962890625L94.52743333333333,69.8086962890625L94.7662,69.8086962890625L95.10936666666666,69.8086962890625L95.34813333333334,67.68478271484375L95.6913,67.68478271484375L95.93006666666666,67.68478271484375L96.22586666666668,85.91586914062499L96.512,85.91586914062499L96.8078,85.91586914062499L97.09393333333333,85.91586914062499L97.2341,81.77391357421875L97.67586666666668,73.24260864257813L97.81603333333334,46.267825927734386L98.23363333333334,64.78195678710938L98.39796666666668,64.78195678710938L98.72566666666665,80.5704345703125L98.9799,80.5704345703125L99.13553333333334,96.71282592773439L99.5222,125.03282592773438L99.71746666666667,125.03282592773438L99.88953333333333,139.22826049804686L100.2994,131.05086914062503L100.40090000000001,148.7863037109375L100.73633333333333,147.65347778320313L100.98283333333333,147.65347778320313L101.30569999999999,148.11369506835936L101.56476666666667,148.11369506835936L101.88763333333334,148.11369506835936L102.1467,148.11369506835936L102.46956666666667,148.11369506835936L102.72863333333332,148.11369506835936L102.91133333333333,154.41478271484374L103.24773333333333,154.41478271484374L103.49326666666666,154.41478271484374L103.82966666666667,154.41478271484374L104.0752,145.52934814453124L104.4116,145.52934814453124L104.59043333333334,164.11434814453125L104.95486666666666,145.60021728515625L105.17236666666666,145.60021728515625L105.5368,129.81173950195313L105.7543,129.81173950195313L105.96116666666667,132.820869140625L106.29853333333334,104.50086914062499L106.5431,104.50086914062499L106.88046666666666,90.30543457031249L107.12503333333333,90.30543457031249L107.4624,72.57000000000001L107.70696666666666,55.64869628906251L108.04433333333333,55.64869628906251L108.28890000000001,55.18869506835939L108.55666666666667,78.6586962890625L108.7007,94.3763049316406L109.08833333333332,100.53608642578124L109.28263333333332,100.53608642578124L109.67026666666666,100.53608642578124L109.86456666666666,76.0036962890625L110.24156666666667,97.27913085937499L110.37206666666667,98.69521728515626L110.8235,98.69521728515626L110.954,98.69521728515626L111.40543333333332,98.69521728515626L111.53593333333333,80.11021728515625L111.98736666666667,80.11021728515625L112.11786666666666,80.11021728515625L112.52096666666667,92.0754345703125L112.69980000000001,92.0754345703125L112.9695,89.31413085937501L113.23436666666666,89.31413085937501L113.4045,110.58956542968751L113.7554,110.58956542968751L113.98643333333334,110.58956542968751L114.33733333333333,110.58956542968751L114.56836666666666,110.58956542968751L114.89703333333333,118.90869506835936L115.15029999999999,118.90869506835936L115.47896666666668,95.43847778320313L115.73223333333334,79.72086914062501L116.0609,73.56130371093751L116.31416666666667,73.56130371093751L116.59450000000001,85.42021728515626L116.8961,85.42021728515626L117.17643333333334,64.14478271484374L117.35526666666667,77.17195678710938L117.75836666666666,77.17195678710938L117.93719999999999,77.17195678710938L118.3403,77.17195678710938L118.51913333333333,77.17195678710938L118.85166666666666,93.7745654296875L119.10106666666667,93.7745654296875L119.4336,81.80934814453126L119.683,81.80934814453126L120.01553333333332,65.419130859375L120.26493333333333,65.419130859375L120.59746666666668,44.1436962890625L120.84686666666667,44.1436962890625L121.1794,44.1436962890625L121.4288,44.1436962890625L121.76133333333334,44.1436962890625L122.01073333333333,35.82478271484376L122.34326666666666,35.82478271484376L122.59266666666667,35.82478271484376L122.92519999999999,35.82478271484376L123.1746,35.82478271484376L123.50713333333334,35.82478271484376L123.75653333333334,23.965869140624996L124.08906666666667,23.965869140624996L124.33846666666666,23.965869140624996L124.671,9.522608642578115L124.87303333333334,28.815651855468747L125.1669,28.815651855468747L125.45496666666666,28.815651855468747L125.74883333333332,28.815651855468747L126.0369,12.213043212890625L126.33076666666666,12.213043212890625L126.61883333333333,12.213043212890625L126.9127,12.213043212890625L127.11763333333333,31.612174072265628L127.25200000000001,44.49782592773438L127.69956666666666,44.49782592773438L127.83393333333333,44.49782592773438L128.2815,44.49782592773438L128.41586666666666,44.49782592773438L128.8151,58.48086914062501L128.99393333333333,58.48086914062501L129.39703333333333,58.48086914062501L129.57586666666666,58.48086914062501L129.97896666666668,58.48086914062501L130.1578,58.48086914062501L130.54543333333334,77.63217407226563L130.73973333333333,77.63217407226563L130.9437,95.26130493164064L131.32166666666666,95.26130493164064L131.44443333333334,107.15586914062501L131.7093,124.50173950195312L131.9819,124.50173950195312L132.29123333333334,124.50173950195312L132.56383333333332,124.50173950195312L132.87316666666666,124.50173950195312L133.14576666666667,124.50173950195312L133.27143333333333,139.7236962890625L133.7277,139.7236962890625L133.85336666666666,120.3245654296875L134.2787,128.71434814453124L134.3947,132.50217407226563L134.68276666666668,148.96326049804688L134.97663333333333,148.96326049804688L135.2647,148.96326049804688L135.55856666666665,134.98021728515624L135.84663333333333,134.98021728515624L136.1405,134.98021728515624L136.42856666666665,134.98021728515624L136.72243333333333,134.98021728515624L137.0105,134.98021728515624L137.30436666666668,115.8286962890625L137.59243333333333,115.8286962890625L137.8863,98.1995654296875L138.17436666666669,98.1995654296875L138.45953333333333,87.22565185546875L138.69346666666667,69.8795654296875L138.99893333333333,82.30499999999999L139.10526666666667,82.30499999999999L139.54703333333333,100.99630371093751L139.64563333333334,120.3245654296875L140.1193,124.28934814453125L140.20533333333333,109.06739135742187L140.70123333333333,109.06739135742187L140.78726666666665,109.06739135742187L141.0212,109.06739135742187L141.29283333333333,126.55500000000002L141.49003333333332,110.09391357421875L141.87476666666666,110.09391357421875L142.07196666666667,110.09391357421875L142.4567,110.09391357421875L142.6539,110.09391357421875L143.03863333333334,114.02347778320312L143.23583333333335,114.02347778320312L143.62056666666666,114.02347778320312L143.81776666666667,114.02347778320312L144.20250000000001,114.02347778320312L144.3997,114.02347778320312L144.78443333333334,114.02347778320312L144.98163333333332,114.02347778320312L145.58193333333335,136.360869140625L146.16386666666665,123.9354345703125L146.7458,85.91586914062499L147.32773333333333,81.95108642578124L147.90966666666668,82.69434814453125L148.4916,40.14369506835937L149.07353333333333,40.14369506835937L149.65546666666668,40.14369506835937L150.2171,53.73717407226563L150.23739999999998,49.80782592773436L150.79903333333334,49.80782592773436L150.81933333333333,49.80782592773436L151.1973,57.27717407226563L151.40126666666666,57.27717407226563L151.61200000000002,64.81739135742187L151.9832,64.81739135742187L152.19393333333332,64.81739135742187L152.56513333333334,24.248913574218754L152.77586666666667,24.248913574218754L153.14706666666666,24.248913574218754L153.3578,24.248913574218754L153.729,24.248913574218754L153.90106666666668,40.88695678710938L154.3109333333333,40.88695678710938L154.48299999999998,40.88695678710938L154.86386666666667,66.23347778320313L155.06493333333333,66.23347778320313L155.44580000000002,66.23347778320313L155.64686666666668,66.23347778320313L155.76963333333333,77.70304321289062L156.2288,77.70304321289062L156.35156666666666,77.70304321289062L156.71696666666668,96.18173950195315L156.9074,82.58826049804688L157.29889999999997,82.58826049804688L157.48933333333335,82.58826049804688L157.88083333333333,82.58826049804688L158.07126666666665,75.11869628906251L158.46276666666668,75.11869628906251L158.6532,67.57869506835938L159.01569999999998,86.02195678710939L159.22643333333332,86.02195678710939L159.59763333333333,84.03956542968751L159.80836666666667,84.03956542968751L160.10996666666665,98.4828259277344L160.3903,98.4828259277344L160.4251,119.75826049804688L160.88426666666666,115.61630493164063L160.98383333333334,134.69695678710937L161.32989999999998,153.9545654296875L161.55996666666664,127.86478271484374L161.8306333333333,139.26369506835937L162.04813333333334,160.53891357421875L162.1709,181.81434814453124L167.4334333333333,194.16891357421878L167.72150000000002,175.08847778320313L167.89260000000002,171.22978271484374L168.2048333333333,171.22978271484374L168.4745333333333,159.83108642578125L168.7645333333333,152.1845654296875L169.05453333333332,137.4936950683594L169.34646666666666,121.59891357421874L169.63646666666668,118.76695678710938L169.9284,109.52760864257813L170.16039999999998,117.20934814453125L170.46586666666667,127.12130493164062L170.53643333333332,116.96152221679688L170.8419,138.23695678710936L171.11353333333335,155.6536962890625L171.32716666666667,155.6536962890625L171.69546666666668,155.6536962890625L171.90910000000002,155.6536962890625L172.25613333333334,158.415L172.49103333333332,138.80347778320314L172.8380666666667,128.96217407226564L173.07006666666666,143.54695678710937L173.42,122.2715222167969L173.652,122.2715222167969L174.00193333333334,122.2715222167969L174.23393333333334,122.2715222167969L174.58386666666667,122.2715222167969L174.81586666666666,106.87260864257813L175.1658,106.87260864257813L175.33303333333333,122.83804321289062L175.66653333333332,110.55413085937498L175.9149666666667,103.96978271484375L176.24846666666667,103.96978271484375L176.46403333333333,113.84630493164063L176.76756666666665,121.35130371093751L177.04596666666666,104.67782592773438L177.25186666666667,102.23521728515625L177.6279,91.1195654296875L177.8338,69.84413085937501L178.09769999999997,69.31326049804687L178.35773333333336,102.97869506835939L178.51336666666668,102.97869506835939L178.93966666666665,102.97869506835939L179.09529999999998,100.21739135742186L179.40656666666666,110.23565185546875L179.5796,125.98869506835936L179.9856,114.37739135742187L180.16153333333332,114.37739135742187L180.56753333333333,114.37739135742187L180.74346666666668,114.37739135742187L181.0093,140.29021728515625L181.26739999999998,157.84869506835938L181.56706666666665,157.84869506835938L181.84933333333333,157.84869506835938L182.01173333333332,170.0263037109375L182.31333333333333,168.68108642578125L182.59366666666668,168.68108642578125L182.89526666666666,168.68108642578125L183.1756,158.80434814453125L183.4772,155.689130859375L183.75753333333333,155.689130859375L184.0591333333333,148.21978271484375L184.26793333333333,169.49521728515626L184.5009,172.575L184.84986666666668,155.689130859375L185.08283333333333,122.02369628906249L185.4318,122.02369628906249L185.66476666666668,122.02369628906249L186.01373333333333,122.02369628906249L186.2467,112.00565185546874L186.57536666666664,109.31521728515625L186.82863333333333,106.34152221679688L187.1573,106.34152221679688L187.41056666666665,106.34152221679688L187.73923333333335,106.34152221679688L187.9925,80.42869628906249L188.15393333333333,79.6854345703125L188.57443333333333,79.6854345703125L188.73586666666668,79.6854345703125L189.15636666666666,51.54239135742188L189.31779999999998,51.54239135742188L189.65226666666666,64.64043457031251L189.87943333333334,65.3836962890625L190.2081,81.10130493164061L190.42173333333335,76.71173950195312L190.79003333333333,76.71173950195312L191.00366666666665,76.71173950195312L191.36229999999998,59.89673950195313L191.5856,56.816956787109376L191.88526666666667,66.2686962890625L192.10566666666665,87.544130859375L192.3106,87.544130859375L192.6876,87.544130859375L192.89253333333332,87.544130859375L193.26953333333333,87.544130859375L193.47446666666667,74.48152221679686L193.85146666666668,74.48152221679686L194.0564,74.48152221679686L194.43339999999998,74.48152221679686L194.63833333333335,74.48152221679686L195.01533333333333,79.6145654296875L195.22026666666665,67.89717407226563L195.59726666666668,67.89717407226563L195.8022,67.89717407226563L196.17919999999998,67.89717407226563L196.37833333333333,76.35782592773437L196.76113333333333,63.259782714843745L196.8752,81.91565185546875L197.21836666666667,66.19804321289064L197.45713333333333,66.19804321289064L197.5644333333333,79.6854345703125L198.0265,98.69521728515626L198.14636666666667,94.23478271484375L198.60843333333332,94.23478271484375L198.72830000000002,84.78304321289063L199.19036666666668,63.50760864257813L199.31023333333331,63.50760864257813L199.7723,70.37521728515625L199.89216666666667,70.37521728515625L200.35423333333335,70.37521728515625L200.4741,70.37521728515625L200.93616666666665,70.37521728515625L201.05603333333335,70.37521728515625L201.5181,70.37521728515625L201.63796666666667,70.37521728515625L202.10003333333336,65.24217407226561L202.2199,60.14456542968751L202.68196666666665,60.14456542968751L202.80183333333335,60.14456542968751L203.2639,60.14456542968751L203.38376666666665,51.68391357421876L203.84583333333333,51.68391357421876L203.9657,32.28478271484376L204.42776666666668,44.03760864257813L204.54763333333332,44.03760864257813L205.00969999999998,30.55021728515624L205.12956666666668,11.540434570312497L205.59163333333333,12.67326049804688L205.7115,12.67326049804688L206.1735666666667,12.67326049804688L206.29343333333333,12.67326049804688L206.68203333333332,21.523260498046866L206.85893333333334,14.655651855468754L207.26396666666668,14.655651855468754L207.44086666666666,14.655651855468754L207.8459,14.655651855468754L208.0228,14.655651855468754L208.29153333333335,22.337391357421872L208.60473333333334,26.266739501953115L208.87346666666664,26.266739501953115L209.18666666666667,26.266739501953115L209.28913333333335,44.42695678710937L209.74056666666667,49.20608642578125L209.84786666666668,49.20608642578125L210.3225,49.20608642578125L210.4298,49.20608642578125L210.90443333333334,49.20608642578125L210.97306666666665,68.64065185546875L211.35296666666667,72.10978271484375L211.5376,72.10978271484375L211.9349,72.10978271484375L212.11953333333335,72.10978271484375L212.51683333333332,70.97695678710937L212.70146666666665,70.97695678710937L212.97600000000003,84.075L213.2834,84.075L213.55793333333332,75.22500000000001L213.86533333333335,75.22500000000001L214.13986666666668,76.53478271484376L214.44726666666665,76.53478271484376L214.7218,76.53478271484376L215.0292,76.53478271484376L215.30373333333333,68.85304321289061L215.61113333333333,64.92369506835938L215.88566666666665,64.92369506835938L216.19306666666668,64.92369506835938L216.4676,46.76347778320312L216.775,41.98434814453126L217.04953333333336,41.98434814453126L217.35693333333333,46.267825927734386L217.63146666666665,46.267825927734386L217.93886666666668,46.267825927734386L218.2134,26.833260498046872L218.52079999999998,11.611303710937491L218.79533333333333,11.611303710937491L219.10273333333333,11.611303710937491L219.37726666666666,11.611303710937491L219.68466666666666,11.611303710937491L219.9592,11.611303710937491L220.2666,-1.486739501953114L220.84853333333334,-1.486739501953114L221.01383333333334,19.788695068359374L221.3164,18.478696289062494L221.5957666666667,18.478696289062494L221.89833333333334,22.833043212890633L222.1777,22.833043212890633L222.48026666666667,22.833043212890633L222.75963333333334,22.833043212890633L223.0622,22.833043212890633L223.34156666666667,22.833043212890633L223.64413333333334,25.806522216796882L223.9235,25.806522216796882L224.22606666666664,25.806522216796882L224.50543333333334,21.523260498046866L224.808,21.523260498046866L225.08736666666667,21.523260498046866L225.38993333333335,21.523260498046866L225.57456666666667,30.868696289062505L225.93416666666667,46.48021728515626L226.10333333333332,46.48021728515626L226.48323333333332,59.01173950195312L226.68526666666668,59.01173950195312L227.06516666666667,59.01173950195312L227.2672,59.01173950195312L227.48566666666667,80.28717407226563L227.83270000000002,80.28717407226563L228.0676,59.01173950195312L228.41463333333334,59.01173950195312L228.64953333333332,59.01173950195312L228.9057,64.25108642578125L229.23146666666668,64.25108642578125L229.42576666666665,79.93326049804688L229.63070000000002,99.33239135742188L229.96903333333333,103.93434814453126L230.21263333333332,103.93434814453126L230.55096666666665,100.96086914062498L230.79456666666667,100.96086914062498L231.1329,100.96086914062498L231.3765,100.96086914062498L231.71483333333333,100.96086914062498L231.95843333333332,100.96086914062498L232.29676666666666,100.96086914062498L232.54036666666667,91.61521728515626L232.8787,76.0036962890625L233.10683333333333,85.7386962890625L233.46063333333333,73.20717407226563L233.68876666666668,73.20717407226563L234.04256666666666,73.20717407226563L234.2504,92.42934814453126L234.52396666666667,71.6495654296875L234.76080000000002,84.28739135742187L235.0943,84.28739135742187L235.3427333333333,84.28739135742187L235.45003333333335,105.56282592773438L235.84539999999998,101.49173950195312L236.03196666666665,101.49173950195312L236.42733333333334,85.8095654296875L236.6139,66.4104345703125L237.00926666666666,61.80847778320312L237.19583333333333,61.80847778320312L237.53996666666666,76.0036962890625L237.77776666666668,76.0036962890625L238.1219,76.0036962890625L238.3597,76.0036962890625L238.6062,79.579130859375L238.94163333333333,79.579130859375L239.18813333333333,79.579130859375L239.52356666666668,79.579130859375L239.77006666666668,79.579130859375L240.0900333333333,87.86282592773438L240.352,87.86282592773438L240.50086666666667,103.43869628906249L240.93393333333333,103.43869628906249L241.0828,84.21652221679688L241.51586666666665,83.72108642578124L241.66473333333334,71.08326049804687L242.0978,77.13652221679686L242.24666666666667,77.13652221679686L242.67973333333336,62.16239135742187L242.8286,56.63999999999999L243.26166666666666,56.63999999999999L243.41053333333335,56.63999999999999L243.8436,56.63999999999999L243.99246666666664,56.63999999999999L244.23413333333332,77.9154345703125L244.528,63.72L244.75613333333334,84.9954345703125L245.07706666666667,84.9954345703125L245.3380666666667,84.9954345703125L245.659,81.41999999999999L245.92,81.41999999999999L246.17133333333334,111.36847778320312L246.48260000000002,111.36847778320312L246.7532666666667,111.36847778320312L246.9031,112.395L247.1438,112.395L247.48503333333335,96.81891357421875L247.72573333333335,96.81891357421875L247.97899999999998,130.909130859375L248.2825333333333,150.1313049316406L248.5358,150.1313049316406L248.86446666666666,144.07804321289063L249.09646666666666,147.29934814453125L249.23083333333335,160.36195678710936L249.6252333333333,160.36195678710936L249.81276666666668,160.36195678710936L250.20716666666667,160.36195678710936L250.3947,160.36195678710936L250.7891,160.36195678710936L250.97663333333333,139.08652221679688L251.37103333333334,139.08652221679688L251.55856666666668,117.81130371093751L251.95296666666667,117.81130371093751L252.11053333333334,139.08652221679688L252.37153333333333,144.00717407226563L252.64123333333333,163.47717407226563L252.95346666666666,133.5286962890625L253.22316666666666,135.15717407226563L253.5354,135.15717407226563L253.8051,116.11195678710938L253.99263333333334,137.38739135742188L254.35513333333333,137.38739135742188L254.57456666666667,137.38739135742188L254.93706666666665,103.29717407226563L255.07626666666667,87.01326049804686L255.40009999999998,102.34130493164064L255.65820000000002,102.34130493164064L255.98203333333333,99.12L256.24013333333335,79.75630371093749L256.56396666666666,79.75630371093749L256.79693333333336,98.94304321289063L257.0618,98.94304321289063L257.3788666666667,98.94304321289063L257.64373333333333,98.94304321289063L257.9608,98.94304321289063L258.22566666666665,98.94304321289063L258.54273333333333,98.94304321289063L258.7728,118.37760864257811L259.12466666666666,97.10217407226563L259.35473333333334,92.18152221679686L259.59253333333334,85.66804321289064L259.7878,85.66804321289064L260.17446666666666,84.03956542968751L260.3136666666667,86.58847778320312L260.6955,105.73978271484374L260.89076666666665,84.46434814453126L261.1653,103.40347778320313L261.47270000000003,103.40347778320313L261.71726666666666,112.89065185546876L262.0546333333333,109.95239135742187L262.2992,94.62413085937501L262.6365666666667,94.62413085937501L262.8811333333333,94.62413085937501L263.2185,95.93391357421874L263.4630666666667,95.93391357421874L263.80043333333333,80.605869140625L264.045,80.605869140625L264.38236666666666,80.605869140625L264.62693333333334,80.605869140625L264.9643,80.605869140625L265.20886666666667,80.605869140625L265.54623333333336,80.605869140625L265.7908,61.171303710937494" style="fill: none;" fill="none"></path></g></g></g></g></g></g><g transform="translate(40, 177)" clip-path="url(#clip_1)"><clipPath id="clip_1"><rect width="290" height="23"></rect></clipPath><g><g><line x1="0" y1="0" x2="0" y2="5" style="visibility: inherit;" fill="rgb(0, 0, 0)" stroke="rgb(204, 204, 204)" stroke-width="1px"></line><line x1="24.166666666666664" y1="0" x2="24.166666666666664" y2="5" style="visibility: inherit;" fill="rgb(0, 0, 0)" stroke="rgb(204, 204, 204)" stroke-width="1px"></line><line x1="48.33333333333333" y1="0" x2="48.33333333333333" y2="5" style="visibility: inherit;" fill="rgb(0, 0, 0)" stroke="rgb(204, 204, 204)" stroke-width="1px"></line><line x1="72.5" y1="0" x2="72.5" y2="5" style="visibility: inherit;" fill="rgb(0, 0, 0)" stroke="rgb(204, 204, 204)" stroke-width="1px"></line><line x1="96.66666666666666" y1="0" x2="96.66666666666666" y2="5" style="visibility: inherit;" fill="rgb(0, 0, 0)" stroke="rgb(204, 204, 204)" stroke-width="1px"></line><line x1="120.83333333333334" y1="0" x2="120.83333333333334" y2="5" style="visibility: inherit;" fill="rgb(0, 0, 0)" stroke="rgb(204, 204, 204)" stroke-width="1px"></line><line x1="145" y1="0" x2="145" y2="5" style="visibility: inherit;" fill="rgb(0, 0, 0)" stroke="rgb(204, 204, 204)" stroke-width="1px"></line><line x1="169.16666666666669" y1="0" x2="169.16666666666669" y2="5" style="visibility: inherit;" fill="rgb(0, 0, 0)" stroke="rgb(204, 204, 204)" stroke-width="1px"></line><line x1="193.33333333333331" y1="0" x2="193.33333333333331" y2="5" style="visibility: inherit;" fill="rgb(0, 0, 0)" stroke="rgb(204, 204, 204)" stroke-width="1px"></line><line x1="217.5" y1="0" x2="217.5" y2="5" style="visibility: inherit;" fill="rgb(0, 0, 0)" stroke="rgb(204, 204, 204)" stroke-width="1px"></line><line x1="241.66666666666669" y1="0" x2="241.66666666666669" y2="5" style="visibility: inherit;" fill="rgb(0, 0, 0)" stroke="rgb(204, 204, 204)" stroke-width="1px"></line><line x1="265.8333333333333" y1="0" x2="265.8333333333333" y2="5" style="visibility: inherit;" fill="rgb(0, 0, 0)" stroke="rgb(204, 204, 204)" stroke-width="1px"></line><line x1="290" y1="0" x2="290" y2="5" style="visibility: inherit;" fill="rgb(0, 0, 0)" stroke="rgb(204, 204, 204)" stroke-width="1px"></line></g><g transform="translate(0, 8)"><text x="0" y="0" dx="0em" dy="0.95em" style="text-anchor: middle; visibility: hidden; font-family: Roboto, sans-serif; font-size: 12px; font-weight: 200;" fill="rgb(255, 255, 255)" stroke="none" stroke-width="1px">-200k</text><text x="24.166666666666664" y="0" dx="0em" dy="0.95em" style="text-anchor: middle; visibility: inherit; font-family: Roboto, sans-serif; font-size: 12px; font-weight: 200;" fill="rgb(255, 255, 255)" stroke="none" stroke-width="1px">0</text><text x="48.33333333333333" y="0" dx="0em" dy="0.95em" style="text-anchor: middle; visibility: hidden; font-family: Roboto, sans-serif; font-size: 12px; font-weight: 200;" fill="rgb(255, 255, 255)" stroke="none" stroke-width="1px">200k</text><text x="72.5" y="0" dx="0em" dy="0.95em" style="text-anchor: middle; visibility: inherit; font-family: Roboto, sans-serif; font-size: 12px; font-weight: 200;" fill="rgb(255, 255, 255)" stroke="none" stroke-width="1px">400k</text><text x="96.66666666666666" y="0" dx="0em" dy="0.95em" style="text-anchor: middle; visibility: hidden; font-family: Roboto, sans-serif; font-size: 12px; font-weight: 200;" fill="rgb(255, 255, 255)" stroke="none" stroke-width="1px">600k</text><text x="120.83333333333334" y="0" dx="0em" dy="0.95em" style="text-anchor: middle; visibility: inherit; font-family: Roboto, sans-serif; font-size: 12px; font-weight: 200;" fill="rgb(255, 255, 255)" stroke="none" stroke-width="1px">800k</text><text x="145" y="0" dx="0em" dy="0.95em" style="text-anchor: middle; visibility: hidden; font-family: Roboto, sans-serif; font-size: 12px; font-weight: 200;" fill="rgb(255, 255, 255)" stroke="none" stroke-width="1px">1M</text><text x="169.16666666666669" y="0" dx="0em" dy="0.95em" style="text-anchor: middle; visibility: inherit; font-family: Roboto, sans-serif; font-size: 12px; font-weight: 200;" fill="rgb(255, 255, 255)" stroke="none" stroke-width="1px">1.2M</text><text x="193.33333333333331" y="0" dx="0em" dy="0.95em" style="text-anchor: middle; visibility: hidden; font-family: Roboto, sans-serif; font-size: 12px; font-weight: 200;" fill="rgb(255, 255, 255)" stroke="none" stroke-width="1px">1.4M</text><text x="217.5" y="0" dx="0em" dy="0.95em" style="text-anchor: middle; visibility: inherit; font-family: Roboto, sans-serif; font-size: 12px; font-weight: 200;" fill="rgb(255, 255, 255)" stroke="none" stroke-width="1px">1.6M</text><text x="241.66666666666669" y="0" dx="0em" dy="0.95em" style="text-anchor: middle; visibility: hidden; font-family: Roboto, sans-serif; font-size: 12px; font-weight: 200;" fill="rgb(255, 255, 255)" stroke="none" stroke-width="1px">1.8M</text><text x="265.8333333333333" y="0" dx="0em" dy="0.95em" style="text-anchor: middle; visibility: inherit; font-family: Roboto, sans-serif; font-size: 12px; font-weight: 200;" fill="rgb(255, 255, 255)" stroke="none" stroke-width="1px">2M</text><text x="290" y="0" dx="0em" dy="0.95em" style="text-anchor: middle; visibility: hidden; font-family: Roboto, sans-serif; font-size: 12px; font-weight: 200;" fill="rgb(255, 255, 255)" stroke="none" stroke-width="1px">2.2M</text></g><line x1="0" y1="0" x2="290" y2="0" fill="rgb(0, 0, 0)" stroke="rgb(204, 204, 204)" stroke-width="1px"></line></g></g></g></g></svg>