<svg viewBox="0 0 330 200" xmlns="http://www.w3.org/2000/svg"><g><g><g><g><g><line x1="51.5625" y1="177" x2="46.5625" y2="177" style="visibility: inherit;" fill="rgb(0, 0, 0)" stroke="rgb(204, 204, 204)" stroke-width="1px"></line><line x1="51.5625" y1="163.3846153846154" x2="46.5625" y2="163.3846153846154" style="visibility: inherit;" fill="rgb(0, 0, 0)" stroke="rgb(204, 204, 204)" stroke-width="1px"></line><line x1="51.5625" y1="149.76923076923077" x2="46.5625" y2="149.76923076923077" style="visibility: inherit;" fill="rgb(0, 0, 0)" stroke="rgb(204, 204, 204)" stroke-width="1px"></line><line x1="51.5625" y1="136.15384615384613" x2="46.5625" y2="136.15384615384613" style="visibility: inherit;" fill="rgb(0, 0, 0)" stroke="rgb(204, 204, 204)" stroke-width="1px"></line><line x1="51.5625" y1="122.53846153846153" x2="46.5625" y2="122.53846153846153" style="visibility: inherit;" fill="rgb(0, 0, 0)" stroke="rgb(204, 204, 204)" stroke-width="1px"></line><line x1="51.5625" y1="108.92307692307693" x2="46.5625" y2="108.92307692307693" style="visibility: inherit;" fill="rgb(0, 0, 0)" stroke="rgb(204, 204, 204)" stroke-width="1px"></line><line x1="51.5625" y1="95.30769230769232" x2="46.5625" y2="95.30769230769232" style="visibility: inherit;" fill="rgb(0, 0, 0)" stroke="rgb(204, 204, 204)" stroke-width="1px"></line><line x1="51.5625" y1="81.6923076923077" x2="46.5625" y2="81.6923076923077" style="visibility: inherit;" fill="rgb(0, 0, 0)" stroke="rgb(204, 204, 204)" stroke-width="1px"></line><line x1="51.5625" y1="68.07692307692307" x2="46.5625" y2="68.07692307692307" style="visibility: inherit;" fill="rgb(0, 0, 0)" stroke="rgb(204, 204, 204)" stroke-width="1px"></line><line x1="51.5625" y1="54.46153846153847" x2="46.5625" y2="54.46153846153847" style="visibility: inherit;" fill="rgb(0, 0, 0)" stroke="rgb(204, 204, 204)" stroke-width="1px"></line><line x1="51.5625" y1="40.84615384615386" x2="46.5625" y2="40.84615384615386" style="visibility: inherit;" fill="rgb(0, 0, 0)" stroke="rgb(204, 204, 204)" stroke-width="1px"></line><line x1="51.5625" y1="27.230769230769234" x2="46.5625" y2="27.230769230769234" style="visibility: inherit;" fill="rgb(0, 0, 0)" stroke="rgb(204, 204, 204)" stroke-width="1px"></line><line x1="51.5625" y1="13.615384615384606" x2="46.5625" y2="13.615384615384606" style="visibility: inherit;" fill="rgb(0, 0, 0)" stroke="rgb(204, 204, 204)" stroke-width="1px"></line><line x1="51.5625" y1="0" x2="46.5625" y2="0" style="visibility: inherit;" fill="rgb(0, 0, 0)" stroke="rgb(204, 204, 204)" stroke-width="1px"></line></g><g transform="translate(41.5625, 0)"><text x="0" y="177" dx="0em" dy="0.3em" style="text-anchor: end; visibility: hidden; font-family: Roboto, sans-serif; font-size: 12px; font-weight: 200;" fill="rgb(255, 255, 255)" stroke="none" stroke-width="1px">0.02</text><text x="0" y="163.3846153846154" dx="0em" dy="0.3em" style="text-anchor: end; visibility: inherit; font-family: Roboto, sans-serif; font-size: 12px; font-weight: 200;" fill="rgb(255, 255, 255)" stroke="none" stroke-width="1px">0.03</text><text x="0" y="149.76923076923077" dx="0em" dy="0.3em" style="text-anchor: end; visibility: hidden; font-family: Roboto, sans-serif; font-size: 12px; font-weight: 200;" fill="rgb(255, 255, 255)" stroke="none" stroke-width="1px">0.04</text><text x="0" y="136.15384615384613" dx="0em" dy="0.3em" style="text-anchor: end; visibility: inherit; font-family: Roboto, sans-serif; font-size: 12px; font-weight: 200;" fill="rgb(255, 255, 255)" stroke="none" stroke-width="1px">0.05</text><text x="0" y="122.53846153846153" dx="0em" dy="0.3em" style="text-anchor: end; visibility: hidden; font-family: Roboto, sans-serif; font-size: 12px; font-weight: 200;" fill="rgb(255, 255, 255)" stroke="none" stroke-width="1px">0.06</text><text x="0" y="108.92307692307693" dx="0em" dy="0.3em" style="text-anchor: end; visibility: inherit; font-family: Roboto, sans-serif; font-size: 12px; font-weight: 200;" fill="rgb(255, 255, 255)" stroke="none" stroke-width="1px">0.07</text><text x="0" y="95.30769230769232" dx="0em" dy="0.3em" style="text-anchor: end; visibility: hidden; font-family: Roboto, sans-serif; font-size: 12px; font-weight: 200;" fill="rgb(255, 255, 255)" stroke="none" stroke-width="1px">0.08</text><text x="0" y="81.6923076923077" dx="0em" dy="0.3em" style="text-anchor: end; visibility: inherit; font-family: Roboto, sans-serif; font-size: 12px; font-weight: 200;" fill="rgb(255, 255, 255)" stroke="none" stroke-width="1px">0.09</text><text x="0" y="68.07692307692307" dx="0em" dy="0.3em" style="text-anchor: end; visibility: hidden; font-family: Roboto, sans-serif; font-size: 12px; font-weight: 200;" fill="rgb(255, 255, 255)" stroke="none" stroke-width="1px">0.1</text><text x="0" y="54.46153846153847" dx="0em" dy="0.3em" style="text-anchor: end; visibility: inherit; font-family: Roboto, sans-serif; font-size: 12px; font-weight: 200;" fill="rgb(255, 255, 255)" stroke="none" stroke-width="1px">0.11</text><text x="0" y="40.84615384615386" dx="0em" dy="0.3em" style="text-anchor: end; visibility: hidden; font-family: Roboto, sans-serif; font-size: 12px; font-weight: 200;" fill="rgb(255, 255, 255)" stroke="none" stroke-width="1px">0.12</text><text x="0" y="27.230769230769234" dx="0em" dy="0.3em" style="text-anchor: end; visibility: inherit; font-family: Roboto, sans-serif; font-size: 12px; font-weight: 200;" fill="rgb(255, 255, 255)" stroke="none" stroke-width="1px">0.13</text><text x="0" y="13.615384615384606" dx="0em" dy="0.3em" style="text-anchor: end; visibility: hidden; font-family: Roboto, sans-serif; font-size: 12px; font-weight: 200;" fill="rgb(255, 255, 255)" stroke="none" stroke-width="1px">0.14</text><text x="0" y="0" dx="0em" dy="0.3em" style="text-anchor: end; visibility: hidden; font-family: Roboto, sans-serif; font-size: 12px; font-weight: 200;" fill="rgb(255, 255, 255)" stroke="none" stroke-width="1px">0.15</text></g><line x1="51.5625" y1="0" x2="51.5625" y2="177" fill="rgb(0, 0, 0)" stroke="rgb(204, 204, 204)" stroke-width="1px"></line></g></g><g transform="translate(51, 0)" clip-path="url(#clip_0)"><clipPath id="clip_0"><rect width="278" height="177"></rect></clipPath><g><g><g><line x1="0" y1="0" x2="0" y2="177" fill="rgb(0, 0, 0)" stroke="rgb(189, 189, 189)" stroke-width="1px" opacity="0.25"></line><line x1="23.203125" y1="0" x2="23.203125" y2="177" fill="rgb(0, 0, 0)" stroke="rgb(189, 189, 189)" stroke-width="1px" opacity="0.25"></line><line x1="46.40625" y1="0" x2="46.40625" y2="177" fill="rgb(0, 0, 0)" stroke="rgb(189, 189, 189)" stroke-width="1px" opacity="0.25"></line><line x1="69.609375" y1="0" x2="69.609375" y2="177" fill="rgb(0, 0, 0)" stroke="rgb(189, 189, 189)" stroke-width="1px" opacity="0.25"></line><line x1="92.8125" y1="0" x2="92.8125" y2="177" fill="rgb(0, 0, 0)" stroke="rgb(189, 189, 189)" stroke-width="1px" opacity="0.25"></line><line x1="116.015625" y1="0" x2="116.015625" y2="177" fill="rgb(0, 0, 0)" stroke="rgb(189, 189, 189)" stroke-width="1px" opacity="0.25"></line><line x1="139.21875" y1="0" x2="139.21875" y2="177" fill="rgb(0, 0, 0)" stroke="rgb(189, 189, 189)" stroke-width="1px" opacity="0.25"></line><line x1="162.421875" y1="0" x2="162.421875" y2="177" fill="rgb(0, 0, 0)" stroke="rgb(189, 189, 189)" stroke-width="1px" opacity="0.25"></line><line x1="185.625" y1="0" x2="185.625" y2="177" fill="rgb(0, 0, 0)" stroke="rgb(189, 189, 189)" stroke-width="1px" opacity="0.25"></line><line x1="208.828125" y1="0" x2="208.828125" y2="177" fill="rgb(0, 0, 0)" stroke="rgb(189, 189, 189)" stroke-width="1px" opacity="0.25"></line><line x1="232.03125" y1="0" x2="232.03125" y2="177" fill="rgb(0, 0, 0)" stroke="rgb(189, 189, 189)" stroke-width="1px" opacity="0.25"></line><line x1="255.234375" y1="0" x2="255.234375" y2="177" fill="rgb(0, 0, 0)" stroke="rgb(189, 189, 189)" stroke-width="1px" opacity="0.25"></line><line x1="278.4375" y1="0" x2="278.4375" y2="177" fill="rgb(0, 0, 0)" stroke="rgb(189, 189, 189)" stroke-width="1px" opacity="0.25"></line></g><g><line x1="0" y1="177" x2="278.4375" y2="177" fill="rgb(0, 0, 0)" stroke="rgb(189, 189, 189)" stroke-width="1px" opacity="0.25"></line><line x1="0" y1="163.3846153846154" x2="278.4375" y2="163.3846153846154" fill="rgb(0, 0, 0)" stroke="rgb(189, 189, 189)" stroke-width="1px" opacity="0.25"></line><line x1="0" y1="149.76923076923077" x2="278.4375" y2="149.76923076923077" fill="rgb(0, 0, 0)" stroke="rgb(189, 189, 189)" stroke-width="1px" opacity="0.25"></line><line x1="0" y1="136.15384615384613" x2="278.4375" y2="136.15384615384613" fill="rgb(0, 0, 0)" stroke="rgb(189, 189, 189)" stroke-width="1px" opacity="0.25"></line><line x1="0" y1="122.53846153846153" x2="278.4375" y2="122.53846153846153" fill="rgb(0, 0, 0)" stroke="rgb(189, 189, 189)" stroke-width="1px" opacity="0.25"></line><line x1="0" y1="108.92307692307693" x2="278.4375" y2="108.92307692307693" fill="rgb(0, 0, 0)" stroke="rgb(189, 189, 189)" stroke-width="1px" opacity="0.25"></line><line x1="0" y1="95.30769230769232" x2="278.4375" y2="95.30769230769232" fill="rgb(0, 0, 0)" stroke="rgb(189, 189, 189)" stroke-width="1px" opacity="0.25"></line><line x1="0" y1="81.6923076923077" x2="278.4375" y2="81.6923076923077" fill="rgb(0, 0, 0)" stroke="rgb(189, 189, 189)" stroke-width="1px" opacity="0.25"></line><line x1="0" y1="68.07692307692307" x2="278.4375" y2="68.07692307692307" fill="rgb(0, 0, 0)" stroke="rgb(189, 189, 189)" stroke-width="1px" opacity="0.25"></line><line x1="0" y1="54.46153846153847" x2="278.4375" y2="54.46153846153847" fill="rgb(0, 0, 0)" stroke="rgb(189, 189, 189)" stroke-width="1px" opacity="0.25"></line><line x1="0" y1="40.84615384615386" x2="278.4375" y2="40.84615384615386" fill="rgb(0, 0, 0)" stroke="rgb(189, 189, 189)" stroke-width="1px" opacity="0.25"></line><line x1="0" y1="27.230769230769234" x2="278.4375" y2="27.230769230769234" fill="rgb(0, 0, 0)" stroke="rgb(189, 189, 189)" stroke-width="1px" opacity="0.25"></line><line x1="0" y1="13.615384615384606" x2="278.4375" y2="13.615384615384606" fill="rgb(0, 0, 0)" stroke="rgb(189, 189, 189)" stroke-width="1px" opacity="0.25"></line><line x1="0" y1="0" x2="278.4375" y2="0" fill="rgb(0, 0, 0)" stroke="rgb(189, 189, 189)" stroke-width="1px" opacity="0.25"></line></g></g></g><g><g><line x1="0" y1="204.23076923076923" x2="278.4375" y2="204.23076923076923" fill="rgb(0, 0, 0)" stroke="rgb(153, 153, 153)" stroke-width="1.5px"></line></g></g><g><g><line x1="23.203125" y1="0" x2="23.203125" y2="177" fill="rgb(0, 0, 0)" stroke="rgb(153, 153, 153)" stroke-width="1.5px"></line></g></g><g><g><g><g><g><path stroke="rgb(255, 112, 67)" stroke-width="2px" d="M24.320587500000002,204.23076923076923L24.879318750000003,146.34222747415913L25.43805,133.83872927124384L25.99678125,134.84285655619226L26.555512500000003,140.15348598401647L27.11424375,146.51184224447354L27.672975,152.68384827049505L28.231706250000002,158.2303069380135L28.790437500000003,163.04421489743837L29.34916875,160.94478584421643L29.9079,161.24059233595284L30.466631250000002,162.0993234830864L30.959465625,157.1634189041044L31.025362499999996,154.204352828642L31.518196875,152.42980387203733L31.58409375,162.25954641372874L32.076928125,168.15632696847695L32.142825,171.6940119968311L32.635659374999996,168.37013219082584L32.70155625,166.3758820857686L33.194390625,165.17936002167312L33.2602875,164.4614568625449L33.567496875,153.13835852013742L33.81901875,135.45219543673414L34.126228125,124.84052976740054L34.2738,113.02738366672419L34.56151875,105.93950374433354L34.832531249999995,101.68677857658088L35.12025,99.13514447877391L35.388478125,86.71185345861402L35.67898125,79.25787990116099L35.94720937499999,80.23164911642267L36.2377125,80.81591061582007L36.505940625,81.16646750474504L36.79644375,81.3768016342432L37.064671875,81.50300211055358L37.355175,81.57872239584L37.530590624999995,81.62415456683192L37.91390625,81.65141386936226L38.089321875,81.66776945085718L38.28886875,70.78527737450878L38.61556875,64.25578213205141L38.8476,60.33808498778361L39.1743,63.433619412221006L39.305165625,59.844787356340255L39.713540625,52.245335412753604L39.861112500000004,47.685664246783624L40.272271875,55.842166967409106L40.41984375,71.62837807749818L40.831003124999995,81.10010474346997L40.978575,92.2292934530371L41.389734375,98.90680667875665L41.53730625,102.9133146141809L41.948465625,105.3172193754328L42.0960375,117.65186968103272L42.507196875000005,125.05265986438968L42.654768749999995,129.4931339744028L43.065928125,132.15741844041025L43.2135,133.75598912001462L43.624659375,134.71513152777717L43.77223125,135.2906169724347L44.183390625,135.63590823922922L44.330962500000005,141.28923773815396L44.742121875,144.6812354375088L44.88969375,146.7164340571217L45.300853124999996,158.82986067773507L45.448425,166.0979166501031L45.859584375000004,170.45875023352392L45.952396875,167.62909665915356L46.418315625,171.37745823895418L46.511128125,179.07262891125737L49.6843875,177.00752004311877L49.824534375000006,171.5583585449105L50.08348125,162.84270792156272L50.383265625,157.61331754755403L50.6422125,154.47568332314881L50.941996874999994,152.59310278850572L51.20094375,151.46355446771983L51.500728125,145.33967073640025L51.69841875,136.21918778761093L52.059459374999996,130.74689801833733L52.25715,127.46352415677315L52.37780625,114.601192390989L52.815881250000004,112.32994604151615L52.9365375,110.9671982318324L53.319853125,104.70339683602457L53.49526875,106.39126870853745L53.878584375,107.40399183204524L54.053999999999995,102.56547299615224L54.437315625,99.66236169461648L54.535696875,92.47433814599657L54.949640625,88.16152401682464L55.094428125,85.57383553932148L55.508371874999995,84.02122245281957L55.653159375,83.08965460091845L56.067103125,82.53071388977776L56.211890625,82.19534946309335L56.529309375,81.9941308070827L56.739065625,87.31955638117475L57.088040625,90.51481172562995L57.297796875,92.4319649323031L57.57530625,82.68994737861092L57.849103125,76.84473684639563L58.134037500000005,78.78376323706405L58.407834375,85.39333583916356L58.69276875,89.35907940042324L58.966565625,91.73852553717907L59.2515,104.05850066807818L59.525296874999995,111.45048574661766L59.785171875,110.43952205489335L59.995856249999996,109.83294383985873L60.093309375000004,98.57668743314194L60.440428125000004,91.82293358911184L60.652040625,93.21683805039221L60.902634375000005,88.60702395946203L61.210771875000006,91.28729227260231L61.461365625,92.89545326048652L61.769503125,93.86034985321702L62.02009687499999,94.43928780885534L62.328234375,94.78665058223834L62.5741875,89.54891147856969L62.877684374999994,80.9601153063709L63.13291875,81.25299031304921L63.436415625,81.42871531705622L63.691649999999996,81.53415031946041L63.792815625,76.15125861090532L64.197478125,78.36767629576988L64.336696875,79.69752690668864L64.756209375,80.49543727323986L64.895428125,80.97418349317059L65.31494062499999,81.26143122512903L65.444878125,75.98762715430648L65.873671875,72.82334471181295L65.959059375,65.47862253631924L66.380428125,61.071789231023L66.489946875,58.42768924784525L66.90481875,62.28738196793621L66.994846875,59.15704488999318L67.129425,57.278842643227385L67.553578125,61.59807400516551L67.63525312499999,58.743460112330766L68.08910625,51.58453906663231L68.193984375,47.289186439213225L68.6478375,44.71197486276177L68.752715625,43.16564791689088L69.20656875,47.68400445936599L69.307734375,50.39501838485104L69.76251562499999,46.57547403014445L69.8544,44.28374741732052L70.321246875,42.90871144962613L70.41313124999999,47.52984257900714L70.879978125,55.74867396663337L70.97186250000001,60.67997279920908L71.438709375,63.638752098754516L71.53059375000001,65.41401967848178L71.975165625,61.03302751632054L72.089325,63.8505849290214L72.52647187500001,60.0949666666443L72.63599062499999,63.28774841921565L73.085203125,70.64957018075609L73.194721875,80.51282000537879L73.643934375,91.87692261014999L73.75345312500001,104.14153891186076L74.113565625,106.0541539540392L74.23236562500001,101.75557026934862L74.672296875,104.62257276853191L74.79109687500001,111.7889290068899L75.06860625,110.6425880110567L75.327553125,109.95478341355675L75.6273375,109.54210065505679L75.886284375,109.2944909999568L76.18606874999999,114.59207994574486L76.44501562500001,123.21678602321529L76.74480000000001,128.39160966969757L76.99632187499999,126.0503511475893L77.30353125,124.64559603432436L77.55226875,118.35658822751736L77.8622625,114.58318354343314L78.111,106.87298802298501L78.42099375,102.24687071071612L78.53144062499999,99.47120032335481L78.79224375,97.805798090938L79.09017187500001,102.25270946148555L79.350975,104.92085628381406L79.645190625,101.07559166721354L79.90970625,98.76843289725326L80.20392187499999,97.38413763527706L80.4684375,96.55356047809136L80.762653125,101.50136689377756L81.02716875,109.9162054820373L81.32138437500001,114.96510863499313L81.58590000000001,117.99445052676666L81.880115625,125.25820837182839L82.14463125,129.6164630788654L82.438846875,132.23141590308765L82.639321875,128.35423488762333L82.99757812499999,126.02792627834476L83.15071875,119.18598637392961L83.55630937500001,115.08082243128051L83.70945,118.06387880453906L84.115040625,119.85371262849418L84.26818125,126.3737656328649L84.673771875,130.28579743548732L84.818559375,132.63301651706078L85.232503125,134.04134796600485L85.377290625,140.3325015742193L85.791234375,144.107193739148L85.936021875,146.3720090381052L86.349965625,147.73089821747953L86.494753125,153.99238544952692L86.8019625,152.30312406433256L87.053484375,145.84341249436793L87.125878125,131.0752781035435L87.61221562499999,122.21439746904883L87.68460937500001,116.89786908835204L88.170946875,113.70795205993394L88.243340625,111.79400184288312L88.729678125,110.6456317126526L88.802071875,109.9566096345143L89.288409375,109.54319638763131L89.36080312499999,114.74130317834957L89.760825,112.41401251393246L89.91953437500001,116.46379285413025L90.19982812500001,113.44750631940089L90.42907500000001,111.63773439856325L90.758559375,110.55187124606068L90.98780625,109.90035335455917L91.317290625,109.50944261965823L91.5465375,114.7210509175657L91.87602187499999,117.8480158963102L92.10526875,119.72419488355686L92.389275,115.40374753705684L92.664,112.81147912915687L92.94800625,111.25611808441685L93.22273125,110.32290145757285L93.357309375,109.76297148146647L93.7814625,114.87316823465062L93.91604062500001,128.8315937354068L94.316990625,131.76049429701246L94.474771875,133.51783463397587L94.78940625,129.12608612615628L95.033503125,126.49103702146452L95.18293125000001,119.46385281980143L95.55418125,104.35523282110755L95.7416625,95.29006082189125L95.90686875,84.40480491236382L96.30039375,83.31980407664496L96.397846875,77.22265086521605L96.71990625,73.56435893835871L96.95657812500001,71.36938378224431L97.266571875,64.60624597857803L97.515309375,60.5483632963783L97.825303125,58.113633687058424L98.074040625,56.652795921466506L98.384034375,55.77629326211136L98.63277187499999,55.25039166649827L98.8081875,49.488697999132796L99.131175,46.03168179871352L99.36691875,43.95747207846194L99.68990624999999,42.712946246311L99.92564999999999,47.41238345701805L100.2486375,50.23204578344228L100.42034062500001,41.031537759301585L100.77024374999999,40.95738565481477L100.979071875,40.91289439212271L101.328975,46.332352344505075L101.537803125,49.58402711593449L101.736421875,51.53503197879215L102.0603375,63.59794031650198L102.295153125,70.83568531912788L102.61906875,80.62448908840184L102.85388437499999,86.49777134996621L103.1778,95.46789341690247L103.41261562499999,106.29612139591225L103.73653125,112.79305818331811L103.97134687500001,122.13737296575924L104.2284375,116.85165438637829L104.366728125,108.23407052875208L104.73890625,97.61736344647794L104.925459375,91.24733919711345L105.2976375,87.42532464749476L105.484190625,96.0244253954196L105.846159375,95.73773313417686L105.97145625,90.11956100973282L106.404890625,86.74865773506639L106.5301875,84.72611577026652L106.963621875,83.5125905913866L107.08891874999999,93.67678496175469L107.52235312500001,99.77530158397555L107.64765,103.43441155730808L108.034678125,100.18372483130996L108.20638125,98.23331279571111L108.465328125,97.06306557435177L108.719634375,96.36091724153617L108.882984375,90.49347147414838L109.21989375,86.97300401371574L109.441715625,84.86072353745612L109.77862499999999,83.59335525170036L110.000446875,82.8329342802469L110.316009375,76.93052898737723L110.55917812499999,73.3890858116554L110.874740625,82.15652938391837L111.11790937500001,92.86314823727373L111.43347187500001,104.73327428813502L111.676640625,111.85534991865178L111.945796875,110.68244055811381L112.235371875,109.978694941791L112.50452812500001,115.00260231084536L112.67623125,118.016946732278L113.063259375,119.82555338513755L113.2349625,120.91071737685328L113.621990625,121.56181577188273L113.79369374999999,121.9524748089004L114.11296875,116.74071549226299L114.35242500000001,113.61365990228055L114.6717,117.18358128713909L114.91115625,119.3255341180542L115.23043125,126.0568585266009L115.4698875,130.0956531717289L115.7891625,137.96508469765377L116.02861874999999,142.68674361320865L116.34789375,145.5197389625416L116.58735,147.21953617214137L116.906625,148.2394144979012L117.14608125000001,154.29749521777995L117.46535625,157.9323436497072L117.7048125,160.11325270886354L118.0240875,161.42179814435735L118.26354375,162.20692540565364L118.58281875,162.67800176243142L118.822275,168.4068013009209L119.14155000000001,171.84408102401457L119.38100625,173.9064488578708L119.70028125,180.59002328260735L122.049365625,184.14667806840274L122.178375,175.84185336008088L122.60809687499999,170.85895853508777L122.73710625000001,167.86922164009187L123.16682812500001,166.07537950309435L123.2958375,164.99907422089584L123.679153125,158.90713732715392L123.85085625,155.25197519090875L124.23788437500001,153.05887790916165L124.4095875,151.7430195401134L124.796615625,150.95350451868447L124.96831875,150.47979550582707L125.340496875,144.74941535926462L125.52705,141.31118727132716L125.72288437499999,133.80209770856706L126.08578125,129.296643970911L126.20365312499999,121.14721698946933L126.457959375,110.81140809060672L126.719690625,104.60992275128916L127.016690625,100.88903154769861L127.278421875,98.6564968255443L127.575421875,97.3169759922517L127.837153125,96.51326349227615L127.957809375,90.58487922459237L128.395884375,87.0278486639821L128.516540625,90.33978709531438L128.924915625,92.32695015411375L129.036290625,88.07309122169492L129.312871875,80.074623152246L129.595021875,75.27554231057668L129.871603125,72.39609380557508L130.153753125,76.11457741257173L130.430334375,78.34566757676973L130.712484375,79.68432167528853L130.989065625,80.48751413439979L131.271215625,80.96942960986657L131.547796875,81.25857889514661L131.829946875,86.87822523401309L132.106528125,90.25001303733296L132.388678125,97.71923842932252L132.665259375,102.20077366451625L132.93905625,104.88969480563249L133.1636625,111.94920222915026L133.45695,110.7387519444129L133.55904375,110.01248177357047L133.983196875,104.13056696106739L134.077865625,95.15526130586713L134.53264687499998,84.32392520274934L134.61525,83.27127625087628L135.091378125,82.63968687975246L135.17398125,82.26073325707817L135.3985875,82.03336108347361L135.65939062500001,81.89693777931086L135.848728125,87.26124056451165L136.218121875,90.4798222356321L136.407459375,92.41097123830437L136.776853125,93.56966063990777L136.966190625,94.26487428086978L137.335584375,89.23584569774856L137.524921875,86.21842854787582L137.894315625,84.40797825795218L138.083653125,83.32170808399799L138.453046875,82.66994597962548L138.642384375,82.27888871700196L139.011778125,82.0442543594279L139.201115625,81.90347374488341L139.77748125000002,81.81900537615674L140.3362125,87.21448112261915L140.89494375,101.34407401934224L141.45367499999998,115.26798246737373L142.01240625,118.17617482619502L142.57113750000002,130.8133976903334L143.12986874999999,138.39573140881646L143.6886,142.9451316399063L144.227840625,140.22861703971216L144.24733125,144.0448630184437L144.786571875,146.33461060568263L144.8060625,147.70845915802596L145.16895937500001,143.08661355058396L145.36479375,140.31350618611876L145.567125,133.20348905744203L145.92352499999998,128.93747878023598L146.12585625,126.37787261391236L146.48225625,130.2882616241158L146.6845875,132.63449503023787L147.0409875,134.0422350739111L147.24331875,134.88687910011504L147.59971875,135.39366551583743L147.764925,130.2515846552732L148.15845,127.1663361389347L148.32365625,125.31518702913158L148.6893375,113.31219011440407L148.8823875,106.11039196556757L149.24806875000002,101.78931307626566L149.44111875000002,99.19666574268454L149.558990625,92.19492057483741L149.99984999999998,87.99387347412913L150.117721875,85.47324521370417L150.468553125,78.51471554745159L150.65139374999998,79.78575045769765L151.027284375,80.54837140384528L151.210125,81.00594397153384L151.586015625,81.28048751214698L151.76885625,86.89137040421332L152.144746875,90.25790013945313L152.3275875,97.72397069059461L152.675634375,96.75746031128189L152.877965625,96.17755408369425L153.234365625,101.27576305713929L153.436696875,104.33468844120632L153.72627187499998,100.72389096164892L153.995428125,98.55741247391448L154.028840625,91.81136861357537L154.4697,87.7637422973719L154.565296875,79.88901379765223L154.897565625,69.71802398782279L155.118459375,79.95389228961879L155.37833437499998,80.64925650299796L155.5871625,75.62032232102786L155.705034375,67.15680910184817L156.015028125,62.07870117034036L156.24149062499998,53.58568370143806L156.496725,43.04372051009905L156.705553125,36.71854259529564L157.05545625,32.92343584641362L157.1464125,25.20021502938596L157.59098437499998,20.56628253916933L157.70514375,17.785923045039375L158.149715625,16.117707348561414L158.263875,15.11677793067462L158.70844687500002,14.516220279942544L158.82260624999998,19.60204245720172L159.19942500000002,11.76122222816041L159.367415625,1.6105814384387658L159.75815624999998,-4.479803035394189L160.475596875,-6.195946524324956L160.75774687499998,1.7285856069427878L161.034328125,11.929461653401923L161.19860625,18.049987281277367L161.49839062499998,21.722302658002636L161.75733749999998,29.371844594035416L162.03577499999997,33.96156975565506L162.3142125,36.715404852626854L162.59450625,43.81385862080757L162.87294375,53.519083591713596L163.15323750000002,64.78837128425484L163.37598749999998,60.65763847978435L163.669275,52.73304608710444L163.737028125,47.978290651496515L164.03031562500001,39.67928468013413L164.29111875,29.25372432961825L164.496234375,22.998388119308725L164.84985,19.245186393123006L165.05496562500002,16.993265357411563L165.3881625,10.195955968286329L165.613696875,17.00988387020801L165.94689375000002,26.54439332135863L166.16964374999998,26.818946282051403L166.50562499999998,32.429830768464676L166.728375,35.796361460312646L167.06435625,37.81627987542142L167.28710625000002,39.02823092448668L167.6230875,39.755401553925836L167.8458375,45.63785664158696L168.18181875,49.16732969418364L168.342384375,45.83886081574401L168.6625875,43.841779488680224L168.90111562500002,48.0896834024396L169.22131875000002,50.638425750695205L169.42829062500002,46.72151844965096L169.719721875,38.9252213590268L169.98702187499998,50.58590123464516L170.18471250000002,57.58230916001618L170.545753125,67.2263066252364L170.74344374999998,78.45886187206696L170.996821875,85.19839502016531L171.24648750000003,78.34980543132825L171.39591562500001,74.24065167802604L171.80521875,71.77515942604471L171.95464687499998,75.7420167848535L172.253503125,72.67597849014118L172.4196375,65.39020280331616L172.80945,61.01873739122115L172.97836875,58.39585814396416L173.36818125,56.82213059560995L173.5371,55.877894066597435L173.792334375,44.41904672919469L174.04014375,32.097581559054625L174.32786249999998,24.704702456970562L174.598875,20.268974995720107L174.7548,12.161381751271445L175.044375,12.74298257230064L175.31353125,13.091943064918157L175.60310625,13.30131936048869L175.8722625,18.873101905529428L176.16183750000002,22.21617143255387L176.43099375,24.22201314876853L176.72056874999998,30.871670888494947L176.92104375,29.415312822333206L177.14472187500002,17.649184447239275L177.47977500000002,16.035664189881313L177.703453125,25.95986151316262L178.03850624999998,31.914379907131394L178.262184375,35.48709094351265L178.5972375,37.630717565341435L178.820915625,44.363046248436326L179.136478125,42.95629074829563L179.379646875,47.55839015820882L179.695209375,50.31964980415675L179.93837812499999,51.976405591725495L180.253940625,52.970459064266755L180.497109375,64.45919656778675L180.65210625,65.90628635990113L181.055840625,66.77454023516975L181.2108375,67.29549256033094L181.614571875,78.50037343312368L181.76956875,85.22330195679933L182.0907,78.36474959330867L182.308809375,68.80346546521665L182.62437187499998,57.62054227836383L182.8294875,56.35694107624975L183.183103125,55.598780354981315L183.38821875,55.14388392222024L183.73255312499998,54.8709460625636L183.94695000000002,65.59948876676486L184.23466875,66.59046167928798L184.44628125,61.738892716804266L184.64304374999998,58.827951339314005L185.00501250000002,57.08138651281986L185.201775,56.03344761692336L185.56374375,55.40468427938547L185.76050625000002,65.91973169685797L186.122475,72.22876014734146L186.31923749999999,76.01417721763158L186.68120624999997,78.28542745980563L186.87796875,79.64817760511008L187.2399375,75.01967498229513L187.4367,77.68872611860375L187.79866875000002,79.29015680038893L187.99543125,80.25101520946004L188.35739999999998,80.8275302549027L188.54859375,75.7272865721707L188.91613125,83.55944984022753L189.02565,88.25874780106166L189.355134375,96.52447928755971L189.58438124999998,101.48391817945858L189.68740312499997,99.01342880460025L190.13104687499998,92.08497841198684L190.246134375,93.37406494411725L190.689778125,94.14751686339547L190.80486562500002,100.05774072496L191.24850937500003,109.05002978074677L191.36359687499998,114.44540321421881L191.807240625,112.23647253545403L191.922328125,110.91111412819514L192.365971875,110.11589908383982L192.481059375,109.63877005722664L192.92470312499998,109.3524926412587L193.039790625,109.18072619167795L193.483434375,109.07766632192953L193.59852187500002,109.01583040008045L194.04216562500002,114.42488358581902L194.15725312499998,123.1164682072598L194.600896875,128.33141898012425L194.715984375,131.46038944384293L195.159628125,133.33777172207417L195.274715625,139.91035582786088L195.71835937499998,143.85390629133295L195.833446875,151.666190293839L196.277090625,150.9074069709198L196.392178125,150.4521369771683L196.835821875,155.62512870534022L196.950909375,164.17507746666615L197.394553125,163.85889299903894L197.509640625,163.6691823184626L197.953284375,163.5553559101168L198.068371875,163.4870600651093L198.441478125,157.999928833682L198.611325,160.15380381924842L199.000209375,161.44612881058828L199.17005625000002,162.2215238053922L199.558940625,162.68676080227453L199.72878749999998,162.96590300040396L199.98680625,157.68723459485878L200.28751875,149.07387881268366L200.5455375,143.90586534337857L200.84625000000003,140.80505726179553L200.94463125000001,133.49841970284808L201.378065625,123.66828242863158L201.4810875,117.77020006410169L201.936796875,114.23135064538374L202.03981875000002,112.108040994153L202.495528125,110.83405520341455L202.56142499999999,104.62351101897384L202.926178125,95.451027740611L203.10344999999998,89.94753777359325L203.484909375,86.64544379338264L203.66218125,84.66418740525627L204.043640625,88.9215903400789L204.2209125,91.47603210097246L204.48450000000003,87.56254038981015L204.77964375,85.21444536311279L205.04323125,89.2517451147928L205.338375,91.67412496580079L205.6019625,87.68139610870718L205.89710625,85.285758794451L206.16069374999998,83.8483764058973L206.4558375,82.98594697276505L206.719425,87.91464608058416L207.01456875,96.31801825527323L207.27815625,101.36004156008666L207.5733,104.38525554297475L207.8368875,111.6465386715556L208.13203125,121.44946125870175L208.39561875,127.33121481098942L208.6907625,125.41411423236441L208.95435,124.26385388518942L209.24949375,123.57369767688441L209.51308125,128.60575666189902L209.808225,142.51730051617864L210.0718125,150.8642268287464L210.36695625000002,155.87238261628707L210.63054375,158.87727608881147L210.92568749999998,160.68021217232612L211.189275,161.7619738224349L211.48441875,167.85718453692297L211.74800625,171.51431096561583L212.04315,173.70858682283153L212.201859375,169.57899861273816L212.49236249999998,172.54739941110495L212.76059062500002,174.32843989012503L213.05109375,169.95091045311423L213.31932187499999,167.32439279090775L213.609825,165.7484821935839L213.878053125,164.80293583518954L214.16855625,164.23560802015297L214.436784375,163.895211331131L214.72728750000002,158.244819593295L214.995515625,154.85458455059342L215.28601874999998,152.82044352497246L215.55424687500002,157.0461126340227L215.84475,159.58151409945285L216.11297812499998,161.10275497871095L216.40348125,162.0154995062658L216.580753125,157.11699249837588L216.926015625,148.73173355479392L217.0884375,143.70057818864473L217.453190625,135.2357322589576L217.64716875,130.15682470114533L218.011921875,127.10948016645794L218.2059,125.28107344564552L218.41565624999998,118.73787467431006L218.748853125,114.81195541150876L218.9743875,117.90255859267603L219.307584375,119.75692050137637L219.53311875,120.8695376465966L219.779071875,121.53710793372872L220.09185,121.93765010600798L220.27840312499998,116.73182067052754L220.47516562500002,108.16217029924164L220.800009375,97.57422330877166L221.03389687499998,91.22145511448967L221.358740625,92.85595096561894L221.592628125,93.83664847629649L221.917471875,94.425066982703L222.151359375,94.77811808654691L222.476203125,94.98994874885327L222.710090625,95.1170471462371L223.034934375,95.19330618466736L223.26882187500001,100.68521431772315L223.593665625,109.42651393640465L223.81270312499998,103.7789862587679L224.152396875,105.83662236218349L224.371434375,107.07120402423284L224.711128125,107.81195302146243L224.910675,102.81024970980258L225.173334375,99.80922772280665L225.400725,92.5624577629107L225.720928125,88.21439578697311L225.95945625,85.60555860141054L226.062478125,78.5941035800754L226.44208125,74.38723056727432L226.621209375,71.86310675959366L227.0008125,75.7947851849829L227.179940625,83.59994900791487L227.55954375,93.72920001167165L227.738671875,99.80675061392573L228.069084375,98.00712826528056L228.297403125,96.92735485609346L228.627815625,96.2794908105812L228.856134375,95.89077238327384L229.09280625,90.21138455919098L229.414865625,86.80375186474126L229.6515375,84.75917224807145L229.973596875,83.53242447806954L230.21026875,82.79637581606842L230.517478125,87.80090338656616L230.769,90.80361992886482L230.91193125,81.71294037654796L231.32773125,76.25853264515783L231.47066249999997,78.4320407163214L231.8864625,85.18230232671797L232.02939375,94.67861200295353L232.44519375000002,94.93024509869724L232.58812500000002,95.08122495614346L233.003925,89.72565610291277L233.14685624999998,91.95847155867278L233.56265625,93.29816083212879L233.7055875,94.10197439620238L234.1213875,94.58426253464657L234.26431875,94.87363541771305L234.49634999999998,89.60110237985452L234.77849999999998,91.88373932483785L234.9975375,87.80716472412936L235.305675,85.3612199637043L235.55626875000002,83.89365310744927L235.86440625,88.45926976139468L236.11499999999998,91.19863975376194L236.3563125,81.94995227148623L236.65516875,76.40073978212081L236.91504375000002,73.07121228850157L237.058903125,71.07349579233002L237.29000625,69.87486589462708L237.617634375,80.04799743370137L237.8487375,86.15187635714595L238.09190625,78.92189423351664L238.38333749999998,69.13775224934143L238.62650625,63.2672670588363L238.94206875,65.19112865453089L239.16481875,60.89929290194998L239.293828125,63.770344160399056L239.672503125,65.49297491546852L239.852559375,66.52655336851019L240.231234375,67.14670044033521L240.41129062500002,67.51878868343022L240.78996562499998,67.74204162928721L240.970021875,73.32214610679901L241.348696875,76.6702087933061L241.528753125,84.12520317290878L241.90742812500002,88.5981998006704L242.0587125,85.83584100962892L242.30930625,78.73227302500642L242.568253125,69.02397952423532L242.86803749999999,74.09130884376789L243.126984375,71.68555372548981L243.42676875,70.24210065452296L243.685715625,74.82218152194045L243.865771875,72.12407733239336L244.21381875,70.50521481866508L244.424503125,69.53389731042812L244.77255,79.84341628318198L244.90619999999998,86.02912766683431L245.217121875,84.29439772932727L245.46493125,83.25355976682305L245.775853125,88.07521375701896L246.0236625,96.41435886113409L246.334584375,101.41784592360318L246.5582625,98.97378545108704L246.81256875,97.50734916757733L247.11699375,96.62748739747154L247.37130000000002,96.09957033540805L247.675725,95.78282009816995L247.93003124999998,95.5927699558271L248.23445625,95.47873987042138L248.45535,89.9641650514795L248.7931875,92.10157692781283L249.01408125,98.83017676361044L249.2424,102.86733666508898L249.42988125,105.28963260597612L249.80113125,112.18916490935646L249.93478125,110.88272955253662L250.301390625,99.20655886074867L250.488871875,97.64701321337432L250.752459375,91.26512905725126L251.04760312500002,87.43599856357744L251.28241875,79.69236755737553L251.606334375,80.49234166365201L251.84115,86.41848289511633L252.165065625,89.97416763399494L252.39988125,92.10757847732208L252.72379687499998,87.94146821561992L252.95861250000002,85.44180205859865L253.282528125,83.94200236438589L253.51734374999998,83.04212254785823L253.84125937500002,82.50219465794162L254.076075,82.17823792399166L254.399990625,81.98386388362168L254.63480625,81.8672394593997L254.958721875,81.7972648048665L255.1935375,87.20143677984501" style="fill: none;" fill="none"></path></g></g></g></g><g opacity="0.2"><g><g><g><path stroke="rgb(255, 112, 67)" stroke-width="2px" d="M24.320587500000002,204.23076923076923L24.879318750000003,90.76922738781342L25.43805,119.13461538461539L25.99678125,136.15384513942095L26.555512500000003,147.49999830929133L27.11424375,155.6043934306273L27.672975,161.6826923076923L28.231706250000002,166.41025612847162L28.790437500000003,170.19230718509507L29.34916875,157.81468393137823L29.9079,161.6826923076923L30.466631250000002,163.38461629759806L30.959465625,149.76923198654103L31.025362499999996,149.76923198654103L31.518196875,149.76923198654103L31.58409375,177.0000006086551L32.142825,177.0000006086551L32.635659374999996,163.38461629759806L32.70155625,163.38461629759806L33.194390625,163.38461629759806L33.2602875,163.38461629759806L33.567496875,136.15384513942095L33.81901875,108.92307651730685L34.126228125,108.92307651730685L34.2738,95.3076947423128L34.56151875,95.3076947423128L34.832531249999995,95.3076947423128L35.12025,95.3076947423128L35.388478125,68.07692104807269L35.67898125,68.07692104807269L35.94720937499999,81.69230282306671L36.2377125,81.69230282306671L36.505940625,81.69230282306671L36.79644375,81.69230282306671L37.064671875,81.69230282306671L37.355175,81.69230282306671L37.530590624999995,81.69230282306671L37.91390625,81.69230282306671L38.089321875,81.69230282306671L38.28886875,54.461539273078635L38.61556875,54.461539273078635L38.8476,54.461539273078635L39.1743,68.07692104807269L39.305165625,54.461539273078635L39.713540625,40.846157498084594L39.861112500000004,40.846157498084594L40.272271875,68.07692104807269L40.41984375,95.3076947423128L40.831003124999995,95.3076947423128L40.978575,108.92307651730685L41.389734375,108.92307651730685L41.53730625,108.92307651730685L41.948465625,108.92307651730685L42.0960375,136.15384513942095L42.507196875000005,136.15384513942095L42.654768749999995,136.15384513942095L43.065928125,136.15384513942095L43.2135,136.15384513942095L43.624659375,136.15384513942095L43.77223125,136.15384513942095L44.183390625,136.15384513942095L44.330962500000005,149.76923198654103L44.742121875,149.76923198654103L44.88969375,149.76923198654103L45.300853124999996,177.0000006086551L45.859584375000004,177.0000006086551L45.952396875,163.38461629759806L46.418315625,177.0000006086551L49.6843875,177.0000006086551L49.824534375000006,163.38461629759806L50.08348125,149.76923198654103L50.383265625,149.76923198654103L50.6422125,149.76923198654103L50.941996874999994,149.76923198654103L51.20094375,149.76923198654103L51.500728125,136.15384513942095L51.69841875,122.53846336442692L52.059459374999996,122.53846336442692L52.25715,122.53846336442692L52.37780625,95.3076947423128L52.815881250000004,108.92307651730685L52.9365375,108.92307651730685L53.319853125,95.3076947423128L53.49526875,108.92307651730685L53.878584375,108.92307651730685L54.053999999999995,95.3076947423128L54.437315625,95.3076947423128L54.535696875,81.69230282306671L54.949640625,81.69230282306671L55.094428125,81.69230282306671L55.508371874999995,81.69230282306671L55.653159375,81.69230282306671L56.067103125,81.69230282306671L56.211890625,81.69230282306671L56.529309375,81.69230282306671L56.739065625,95.3076947423128L57.088040625,95.3076947423128L57.297796875,95.3076947423128L57.57530625,68.07692104807269L57.849103125,68.07692104807269L58.134037500000005,81.69230282306671L58.407834375,95.3076947423128L58.69276875,95.3076947423128L58.966565625,95.3076947423128L59.2515,122.53846336442692L59.525296874999995,122.53846336442692L59.785171875,108.92307651730685L59.995856249999996,108.92307651730685L60.093309375000004,81.69230282306671L60.440428125000004,81.69230282306671L60.652040625,95.3076947423128L60.902634375000005,81.69230282306671L61.210771875000006,95.3076947423128L61.461365625,95.3076947423128L61.769503125,95.3076947423128L62.02009687499999,95.3076947423128L62.328234375,95.3076947423128L62.5741875,81.69230282306671L62.877684374999994,68.07692104807269L63.13291875,81.69230282306671L63.436415625,81.69230282306671L63.691649999999996,81.69230282306671L63.792815625,68.07692104807269L64.197478125,81.69230282306671L64.336696875,81.69230282306671L64.756209375,81.69230282306671L64.895428125,81.69230282306671L65.31494062499999,81.69230282306671L65.444878125,68.07692104807269L65.873671875,68.07692104807269L65.959059375,54.461539273078635L66.380428125,54.461539273078635L66.489946875,54.461539273078635L66.90481875,68.07692104807269L66.994846875,54.461539273078635L67.129425,54.461539273078635L67.553578125,68.07692104807269L67.63525312499999,54.461539273078635L68.08910625,40.846157498084594L68.193984375,40.846157498084594L68.6478375,40.846157498084594L68.752715625,40.846157498084594L69.20656875,54.461539273078635L69.307734375,54.461539273078635L69.76251562499999,40.846157498084594L69.8544,40.846157498084594L70.321246875,40.846157498084594L70.41313124999999,54.461539273078635L70.879978125,68.07692104807269L70.97186250000001,68.07692104807269L71.438709375,68.07692104807269L71.53059375000001,68.07692104807269L71.975165625,54.461539273078635L72.089325,68.07692104807269L72.52647187500001,54.461539273078635L72.63599062499999,68.07692104807269L73.085203125,81.69230282306671L73.194721875,95.3076947423128L73.643934375,108.92307651730685L73.75345312500001,122.53846336442692L74.113565625,108.92307651730685L74.23236562500001,95.3076947423128L74.672296875,108.92307651730685L74.79109687500001,122.53846336442692L75.06860625,108.92307651730685L75.327553125,108.92307651730685L75.6273375,108.92307651730685L75.886284375,108.92307651730685L76.18606874999999,122.53846336442692L76.44501562500001,136.15384513942095L76.74480000000001,136.15384513942095L76.99632187499999,122.53846336442692L77.30353125,122.53846336442692L77.55226875,108.92307651730685L77.8622625,108.92307651730685L78.111,95.3076947423128L78.42099375,95.3076947423128L78.53144062499999,95.3076947423128L78.79224375,95.3076947423128L79.09017187500001,108.92307651730685L79.350975,108.92307651730685L79.645190625,95.3076947423128L79.90970625,95.3076947423128L80.20392187499999,95.3076947423128L80.4684375,95.3076947423128L80.762653125,108.92307651730685L81.02716875,122.53846336442692L81.32138437500001,122.53846336442692L81.58590000000001,122.53846336442692L81.880115625,136.15384513942095L82.14463125,136.15384513942095L82.438846875,136.15384513942095L82.639321875,122.53846336442692L82.99757812499999,122.53846336442692L83.15071875,108.92307651730685L83.55630937500001,108.92307651730685L83.70945,122.53846336442692L84.115040625,122.53846336442692L84.26818125,136.15384513942095L84.673771875,136.15384513942095L84.818559375,136.15384513942095L85.232503125,136.15384513942095L85.377290625,149.76923198654103L85.791234375,149.76923198654103L85.936021875,149.76923198654103L86.349965625,149.76923198654103L86.494753125,163.38461629759806L86.8019625,149.76923198654103L87.053484375,136.15384513942095L87.125878125,108.92307651730685L87.61221562499999,108.92307651730685L87.68460937500001,108.92307651730685L88.170946875,108.92307651730685L88.243340625,108.92307651730685L88.729678125,108.92307651730685L88.802071875,108.92307651730685L89.288409375,108.92307651730685L89.36080312499999,122.53846336442692L89.760825,108.92307651730685L89.91953437500001,122.53846336442692L90.19982812500001,108.92307651730685L90.42907500000001,108.92307651730685L90.758559375,108.92307651730685L90.98780625,108.92307651730685L91.317290625,108.92307651730685L91.5465375,122.53846336442692L91.87602187499999,122.53846336442692L92.10526875,122.53846336442692L92.389275,108.92307651730685L92.664,108.92307651730685L92.94800625,108.92307651730685L93.22273125,108.92307651730685L93.357309375,108.92307651730685L93.7814625,122.53846336442692L93.91604062500001,149.76923198654103L94.316990625,136.15384513942095L94.474771875,136.15384513942095L94.78940625,122.53846336442692L95.033503125,122.53846336442692L95.18293125000001,108.92307651730685L95.55418125,81.69230282306671L95.7416625,81.69230282306671L95.90686875,68.07692104807269L96.30039375,81.69230282306671L96.397846875,68.07692104807269L96.71990625,68.07692104807269L96.95657812500001,68.07692104807269L97.266571875,54.461539273078635L97.515309375,54.461539273078635L97.825303125,54.461539273078635L98.074040625,54.461539273078635L98.384034375,54.461539273078635L98.63277187499999,54.461539273078635L98.8081875,40.846157498084594L99.131175,40.846157498084594L99.36691875,40.846157498084594L99.68990624999999,40.846157498084594L99.92564999999999,54.461539273078635L100.2486375,54.461539273078635L100.42034062500001,27.230775723090545L100.77024374999999,40.846157498084594L100.979071875,40.846157498084594L101.328975,54.461539273078635L101.537803125,54.461539273078635L101.736421875,54.461539273078635L102.0603375,81.69230282306671L102.295153125,81.69230282306671L102.61906875,95.3076947423128L102.85388437499999,95.3076947423128L103.1778,108.92307651730685L103.41261562499999,122.53846336442692L103.73653125,122.53846336442692L103.97134687500001,136.15384513942095L104.2284375,108.92307651730685L104.366728125,95.3076947423128L104.73890625,81.69230282306671L104.925459375,81.69230282306671L105.2976375,81.69230282306671L105.484190625,108.92307651730685L105.846159375,95.3076947423128L105.97145625,81.69230282306671L106.404890625,81.69230282306671L106.5301875,81.69230282306671L106.963621875,81.69230282306671L107.08891874999999,108.92307651730685L107.52235312500001,108.92307651730685L107.64765,108.92307651730685L108.034678125,95.3076947423128L108.20638125,95.3076947423128L108.465328125,95.3076947423128L108.719634375,95.3076947423128L108.882984375,81.69230282306671L109.21989375,81.69230282306671L109.441715625,81.69230282306671L109.77862499999999,81.69230282306671L110.000446875,81.69230282306671L110.316009375,68.07692104807269L110.55917812499999,68.07692104807269L110.874740625,95.3076947423128L111.11790937500001,108.92307651730685L111.43347187500001,122.53846336442692L111.676640625,122.53846336442692L111.945796875,108.92307651730685L112.235371875,108.92307651730685L112.50452812500001,122.53846336442692L112.67623125,122.53846336442692L113.063259375,122.53846336442692L113.2349625,122.53846336442692L113.621990625,122.53846336442692L113.79369374999999,122.53846336442692L114.11296875,108.92307651730685L114.35242500000001,108.92307651730685L114.6717,122.53846336442692L114.91115625,122.53846336442692L115.23043125,136.15384513942095L115.4698875,136.15384513942095L115.7891625,149.76923198654103L116.02861874999999,149.76923198654103L116.34789375,149.76923198654103L116.58735,149.76923198654103L116.906625,149.76923198654103L117.14608125000001,163.38461629759806L117.46535625,163.38461629759806L117.7048125,163.38461629759806L118.0240875,163.38461629759806L118.26354375,163.38461629759806L118.58281875,163.38461629759806L118.822275,177.0000006086551L122.049365625,177.0000006086551L122.178375,163.38461629759806L122.60809687499999,163.38461629759806L122.73710625000001,163.38461629759806L123.16682812500001,163.38461629759806L123.2958375,163.38461629759806L123.679153125,149.76923198654103L123.85085625,149.76923198654103L124.23788437500001,149.76923198654103L124.4095875,149.76923198654103L124.796615625,149.76923198654103L124.96831875,149.76923198654103L125.340496875,136.15384513942095L125.52705,136.15384513942095L125.72288437499999,122.53846336442692L126.08578125,122.53846336442692L126.20365312499999,108.92307651730685L126.457959375,95.3076947423128L126.719690625,95.3076947423128L127.016690625,95.3076947423128L127.278421875,95.3076947423128L127.575421875,95.3076947423128L127.837153125,95.3076947423128L127.957809375,81.69230282306671L128.395884375,81.69230282306671L128.516540625,95.3076947423128L128.924915625,95.3076947423128L129.036290625,81.69230282306671L129.312871875,68.07692104807269L129.595021875,68.07692104807269L129.871603125,68.07692104807269L130.153753125,81.69230282306671L130.430334375,81.69230282306671L130.712484375,81.69230282306671L130.989065625,81.69230282306671L131.271215625,81.69230282306671L131.547796875,81.69230282306671L131.829946875,95.3076947423128L132.106528125,95.3076947423128L132.388678125,108.92307651730685L132.665259375,108.92307651730685L132.93905625,108.92307651730685L133.1636625,122.53846336442692L133.45695,108.92307651730685L133.55904375,108.92307651730685L133.983196875,95.3076947423128L134.077865625,81.69230282306671L134.53264687499998,68.07692104807269L134.61525,81.69230282306671L135.091378125,81.69230282306671L135.17398125,81.69230282306671L135.3985875,81.69230282306671L135.65939062500001,81.69230282306671L135.848728125,95.3076947423128L136.218121875,95.3076947423128L136.407459375,95.3076947423128L136.776853125,95.3076947423128L136.966190625,95.3076947423128L137.335584375,81.69230282306671L137.524921875,81.69230282306671L137.894315625,81.69230282306671L138.083653125,81.69230282306671L138.453046875,81.69230282306671L138.642384375,81.69230282306671L139.011778125,81.69230282306671L139.201115625,81.69230282306671L139.77748125000002,81.69230282306671L140.3362125,95.3076947423128L140.89494375,122.53846336442692L141.45367499999998,136.15384513942095L142.01240625,122.53846336442692L142.57113750000002,149.76923198654103L143.12986874999999,149.76923198654103L143.6886,149.76923198654103L144.227840625,136.15384513942095L144.24733125,149.76923198654103L144.786571875,149.76923198654103L144.8060625,149.76923198654103L145.16895937500001,136.15384513942095L145.36479375,136.15384513942095L145.567125,122.53846336442692L145.92352499999998,122.53846336442692L146.12585625,122.53846336442692L146.48225625,136.15384513942095L146.6845875,136.15384513942095L147.0409875,136.15384513942095L147.24331875,136.15384513942095L147.59971875,136.15384513942095L147.764925,122.53846336442692L148.15845,122.53846336442692L148.32365625,122.53846336442692L148.6893375,95.3076947423128L148.8823875,95.3076947423128L149.24806875000002,95.3076947423128L149.44111875000002,95.3076947423128L149.558990625,81.69230282306671L149.99984999999998,81.69230282306671L150.117721875,81.69230282306671L150.468553125,68.07692104807269L150.65139374999998,81.69230282306671L151.027284375,81.69230282306671L151.210125,81.69230282306671L151.586015625,81.69230282306671L151.76885625,95.3076947423128L152.144746875,95.3076947423128L152.3275875,108.92307651730685L152.675634375,95.3076947423128L152.877965625,95.3076947423128L153.234365625,108.92307651730685L153.436696875,108.92307651730685L153.72627187499998,95.3076947423128L153.995428125,95.3076947423128L154.028840625,81.69230282306671L154.4697,81.69230282306671L154.565296875,68.07692104807269L154.897565625,54.461539273078635L155.118459375,95.3076947423128L155.37833437499998,81.69230282306671L155.5871625,68.07692104807269L155.705034375,54.461539273078635L156.015028125,54.461539273078635L156.24149062499998,40.846157498084594L156.496725,27.230775723090545L156.705553125,27.230775723090545L157.05545625,27.230775723090545L157.1464125,13.615383803844471L157.59098437499998,13.615383803844471L157.70514375,13.615383803844471L158.149715625,13.615383803844471L158.263875,13.615383803844471L158.70844687500002,13.615383803844471L158.82260624999998,27.230775723090545L159.19942500000002,-0.000008115401622710294L160.475596875,-0.000008115401622710294L160.75774687499998,13.615383803844471L161.034328125,27.230775723090545L161.19860625,27.230775723090545L161.49839062499998,27.230775723090545L161.75733749999998,40.846157498084594L162.03577499999997,40.846157498084594L162.3142125,40.846157498084594L162.59450625,54.461539273078635L162.87294375,68.07692104807269L163.15323750000002,81.69230282306671L163.37598749999998,54.461539273078635L163.669275,40.846157498084594L163.737028125,40.846157498084594L164.03031562500001,27.230775723090545L164.29111875,13.615383803844471L164.496234375,13.615383803844471L164.84985,13.615383803844471L165.05496562500002,13.615383803844471L165.3881625,-0.000008115401622710294L165.613696875,27.230775723090545L165.94689375000002,40.846157498084594L166.16964374999998,27.230775723090545L166.50562499999998,40.846157498084594L166.728375,40.846157498084594L167.06435625,40.846157498084594L167.28710625000002,40.846157498084594L167.6230875,40.846157498084594L167.8458375,54.461539273078635L168.18181875,54.461539273078635L168.342384375,40.846157498084594L168.6625875,40.846157498084594L168.90111562500002,54.461539273078635L169.22131875000002,54.461539273078635L169.42829062500002,40.846157498084594L169.719721875,27.230775723090545L169.98702187499998,68.07692104807269L170.18471250000002,68.07692104807269L170.545753125,81.69230282306671L170.74344374999998,95.3076947423128L170.996821875,95.3076947423128L171.24648750000003,68.07692104807269L171.39591562500001,68.07692104807269L171.80521875,68.07692104807269L171.95464687499998,81.69230282306671L172.253503125,68.07692104807269L172.4196375,54.461539273078635L172.80945,54.461539273078635L172.97836875,54.461539273078635L173.36818125,54.461539273078635L173.5371,54.461539273078635L173.792334375,27.230775723090545L174.04014375,13.615383803844471L174.32786249999998,13.615383803844471L174.598875,13.615383803844471L174.7548,-0.000008115401622710294L175.044375,13.615383803844471L175.31353125,13.615383803844471L175.60310625,13.615383803844471L175.8722625,27.230775723090545L176.16183750000002,27.230775723090545L176.43099375,27.230775723090545L176.72056874999998,40.846157498084594L176.92104375,27.230775723090545L177.14472187500002,-0.000008115401622710294L177.47977500000002,13.615383803844471L177.703453125,40.846157498084594L178.03850624999998,40.846157498084594L178.262184375,40.846157498084594L178.5972375,40.846157498084594L178.820915625,54.461539273078635L179.136478125,40.846157498084594L179.379646875,54.461539273078635L179.695209375,54.461539273078635L179.93837812499999,54.461539273078635L180.253940625,54.461539273078635L180.497109375,81.69230282306671L180.65210625,68.07692104807269L181.055840625,68.07692104807269L181.2108375,68.07692104807269L181.614571875,95.3076947423128L181.76956875,95.3076947423128L182.0907,68.07692104807269L182.308809375,54.461539273078635L182.62437187499998,40.846157498084594L182.8294875,54.461539273078635L183.183103125,54.461539273078635L183.38821875,54.461539273078635L183.73255312499998,54.461539273078635L183.94695000000002,81.69230282306671L184.23466875,68.07692104807269L184.44628125,54.461539273078635L184.64304374999998,54.461539273078635L185.00501250000002,54.461539273078635L185.201775,54.461539273078635L185.56374375,54.461539273078635L185.76050625000002,81.69230282306671L186.122475,81.69230282306671L186.31923749999999,81.69230282306671L186.68120624999997,81.69230282306671L186.87796875,81.69230282306671L187.2399375,68.07692104807269L187.4367,81.69230282306671L187.79866875000002,81.69230282306671L187.99543125,81.69230282306671L188.35739999999998,81.69230282306671L188.54859375,68.07692104807269L188.91613125,95.3076947423128L189.02565,95.3076947423128L189.355134375,108.92307651730685L189.58438124999998,108.92307651730685L189.68740312499997,95.3076947423128L190.13104687499998,81.69230282306671L190.246134375,95.3076947423128L190.689778125,95.3076947423128L190.80486562500002,108.92307651730685L191.24850937500003,122.53846336442692L191.36359687499998,122.53846336442692L191.807240625,108.92307651730685L191.922328125,108.92307651730685L192.365971875,108.92307651730685L192.481059375,108.92307651730685L192.92470312499998,108.92307651730685L193.039790625,108.92307651730685L193.483434375,108.92307651730685L193.59852187500002,108.92307651730685L194.04216562500002,122.53846336442692L194.15725312499998,136.15384513942095L194.600896875,136.15384513942095L194.715984375,136.15384513942095L195.159628125,136.15384513942095L195.274715625,149.76923198654103L195.71835937499998,149.76923198654103L195.833446875,163.38461629759806L196.277090625,149.76923198654103L196.392178125,149.76923198654103L196.835821875,163.38461629759806L196.950909375,177.0000006086551L197.394553125,163.38461629759806L197.509640625,163.38461629759806L197.953284375,163.38461629759806L198.068371875,163.38461629759806L198.441478125,149.76923198654103L198.611325,163.38461629759806L199.000209375,163.38461629759806L199.17005625000002,163.38461629759806L199.558940625,163.38461629759806L199.72878749999998,163.38461629759806L199.98680625,149.76923198654103L200.28751875,136.15384513942095L200.5455375,136.15384513942095L200.84625000000003,136.15384513942095L200.94463125000001,122.53846336442692L201.378065625,108.92307651730685L201.4810875,108.92307651730685L201.936796875,108.92307651730685L202.03981875000002,108.92307651730685L202.495528125,108.92307651730685L202.56142499999999,95.3076947423128L202.926178125,81.69230282306671L203.10344999999998,81.69230282306671L203.484909375,81.69230282306671L203.66218125,81.69230282306671L204.043640625,95.3076947423128L204.2209125,95.3076947423128L204.48450000000003,81.69230282306671L204.77964375,81.69230282306671L205.04323125,95.3076947423128L205.338375,95.3076947423128L205.6019625,81.69230282306671L205.89710625,81.69230282306671L206.16069374999998,81.69230282306671L206.4558375,81.69230282306671L206.719425,95.3076947423128L207.01456875,108.92307651730685L207.27815625,108.92307651730685L207.5733,108.92307651730685L207.8368875,122.53846336442692L208.13203125,136.15384513942095L208.39561875,136.15384513942095L208.6907625,122.53846336442692L208.95435,122.53846336442692L209.24949375,122.53846336442692L209.51308125,136.15384513942095L209.808225,163.38461629759806L210.0718125,163.38461629759806L210.36695625000002,163.38461629759806L210.63054375,163.38461629759806L210.92568749999998,163.38461629759806L211.189275,163.38461629759806L211.48441875,177.0000006086551L212.04315,177.0000006086551L212.201859375,163.38461629759806L212.49236249999998,177.0000006086551L212.76059062500002,177.0000006086551L213.05109375,163.38461629759806L213.31932187499999,163.38461629759806L213.609825,163.38461629759806L213.878053125,163.38461629759806L214.16855625,163.38461629759806L214.436784375,163.38461629759806L214.72728750000002,149.76923198654103L214.995515625,149.76923198654103L215.28601874999998,149.76923198654103L215.55424687500002,163.38461629759806L215.84475,163.38461629759806L216.11297812499998,163.38461629759806L216.40348125,163.38461629759806L216.580753125,149.76923198654103L216.926015625,136.15384513942095L217.0884375,136.15384513942095L217.453190625,122.53846336442692L217.64716875,122.53846336442692L218.011921875,122.53846336442692L218.2059,122.53846336442692L218.41565624999998,108.92307651730685L218.748853125,108.92307651730685L218.9743875,122.53846336442692L219.307584375,122.53846336442692L219.53311875,122.53846336442692L219.779071875,122.53846336442692L220.09185,122.53846336442692L220.27840312499998,108.92307651730685L220.47516562500002,95.3076947423128L220.800009375,81.69230282306671L221.03389687499998,81.69230282306671L221.358740625,95.3076947423128L221.592628125,95.3076947423128L221.917471875,95.3076947423128L222.151359375,95.3076947423128L222.476203125,95.3076947423128L222.710090625,95.3076947423128L223.034934375,95.3076947423128L223.26882187500001,108.92307651730685L223.593665625,122.53846336442692L223.81270312499998,95.3076947423128L224.152396875,108.92307651730685L224.371434375,108.92307651730685L224.711128125,108.92307651730685L224.910675,95.3076947423128L225.173334375,95.3076947423128L225.400725,81.69230282306671L225.720928125,81.69230282306671L225.95945625,81.69230282306671L226.062478125,68.07692104807269L226.44208125,68.07692104807269L226.621209375,68.07692104807269L227.0008125,81.69230282306671L227.179940625,95.3076947423128L227.55954375,108.92307651730685L227.738671875,108.92307651730685L228.069084375,95.3076947423128L228.297403125,95.3076947423128L228.627815625,95.3076947423128L228.856134375,95.3076947423128L229.09280625,81.69230282306671L229.414865625,81.69230282306671L229.6515375,81.69230282306671L229.973596875,81.69230282306671L230.21026875,81.69230282306671L230.517478125,95.3076947423128L230.769,95.3076947423128L230.91193125,68.07692104807269L231.32773125,68.07692104807269L231.47066249999997,81.69230282306671L231.8864625,95.3076947423128L232.02939375,108.92307651730685L232.44519375000002,95.3076947423128L232.58812500000002,95.3076947423128L233.003925,81.69230282306671L233.14685624999998,95.3076947423128L233.56265625,95.3076947423128L233.7055875,95.3076947423128L234.1213875,95.3076947423128L234.26431875,95.3076947423128L234.49634999999998,81.69230282306671L234.77849999999998,95.3076947423128L234.9975375,81.69230282306671L235.305675,81.69230282306671L235.55626875000002,81.69230282306671L235.86440625,95.3076947423128L236.11499999999998,95.3076947423128L236.3563125,68.07692104807269L236.65516875,68.07692104807269L236.91504375000002,68.07692104807269L237.058903125,68.07692104807269L237.29000625,68.07692104807269L237.617634375,95.3076947423128L237.8487375,95.3076947423128L238.09190625,68.07692104807269L238.38333749999998,54.461539273078635L238.62650625,54.461539273078635L238.94206875,68.07692104807269L239.16481875,54.461539273078635L239.293828125,68.07692104807269L239.672503125,68.07692104807269L239.852559375,68.07692104807269L240.231234375,68.07692104807269L240.41129062500002,68.07692104807269L240.78996562499998,68.07692104807269L240.970021875,81.69230282306671L241.348696875,81.69230282306671L241.528753125,95.3076947423128L241.90742812500002,95.3076947423128L242.0587125,81.69230282306671L242.30930625,68.07692104807269L242.568253125,54.461539273078635L242.86803749999999,81.69230282306671L243.126984375,68.07692104807269L243.42676875,68.07692104807269L243.685715625,81.69230282306671L243.865771875,68.07692104807269L244.21381875,68.07692104807269L244.424503125,68.07692104807269L244.77255,95.3076947423128L244.90619999999998,95.3076947423128L245.217121875,81.69230282306671L245.46493125,81.69230282306671L245.775853125,95.3076947423128L246.0236625,108.92307651730685L246.334584375,108.92307651730685L246.5582625,95.3076947423128L246.81256875,95.3076947423128L247.11699375,95.3076947423128L247.37130000000002,95.3076947423128L247.675725,95.3076947423128L247.93003124999998,95.3076947423128L248.23445625,95.3076947423128L248.45535,81.69230282306671L248.7931875,95.3076947423128L249.01408125,108.92307651730685L249.2424,108.92307651730685L249.42988125,108.92307651730685L249.80113125,122.53846336442692L249.93478125,108.92307651730685L250.301390625,81.69230282306671L250.488871875,95.3076947423128L250.752459375,81.69230282306671L251.04760312500002,81.69230282306671L251.28241875,68.07692104807269L251.606334375,81.69230282306671L251.84115,95.3076947423128L252.165065625,95.3076947423128L252.39988125,95.3076947423128L252.72379687499998,81.69230282306671L252.95861250000002,81.69230282306671L253.282528125,81.69230282306671L253.51734374999998,81.69230282306671L253.84125937500002,81.69230282306671L254.076075,81.69230282306671L254.399990625,81.69230282306671L254.63480625,81.69230282306671L254.958721875,81.69230282306671L255.1935375,95.3076947423128" style="fill: none;" fill="none"></path></g></g></g></g></g></g><g transform="translate(51, 177)" clip-path="url(#clip_1)"><clipPath id="clip_1"><rect width="278" height="23"></rect></clipPath><g><g><line x1="0" y1="0" x2="0" y2="5" style="visibility: inherit;" fill="rgb(0, 0, 0)" stroke="rgb(204, 204, 204)" stroke-width="1px"></line><line x1="23.203125" y1="0" x2="23.203125" y2="5" style="visibility: inherit;" fill="rgb(0, 0, 0)" stroke="rgb(204, 204, 204)" stroke-width="1px"></line><line x1="46.40625" y1="0" x2="46.40625" y2="5" style="visibility: inherit;" fill="rgb(0, 0, 0)" stroke="rgb(204, 204, 204)" stroke-width="1px"></line><line x1="69.609375" y1="0" x2="69.609375" y2="5" style="visibility: inherit;" fill="rgb(0, 0, 0)" stroke="rgb(204, 204, 204)" stroke-width="1px"></line><line x1="92.8125" y1="0" x2="92.8125" y2="5" style="visibility: inherit;" fill="rgb(0, 0, 0)" stroke="rgb(204, 204, 204)" stroke-width="1px"></line><line x1="116.015625" y1="0" x2="116.015625" y2="5" style="visibility: inherit;" fill="rgb(0, 0, 0)" stroke="rgb(204, 204, 204)" stroke-width="1px"></line><line x1="139.21875" y1="0" x2="139.21875" y2="5" style="visibility: inherit;" fill="rgb(0, 0, 0)" stroke="rgb(204, 204, 204)" stroke-width="1px"></line><line x1="162.421875" y1="0" x2="162.421875" y2="5" style="visibility: inherit;" fill="rgb(0, 0, 0)" stroke="rgb(204, 204, 204)" stroke-width="1px"></line><line x1="185.625" y1="0" x2="185.625" y2="5" style="visibility: inherit;" fill="rgb(0, 0, 0)" stroke="rgb(204, 204, 204)" stroke-width="1px"></line><line x1="208.828125" y1="0" x2="208.828125" y2="5" style="visibility: inherit;" fill="rgb(0, 0, 0)" stroke="rgb(204, 204, 204)" stroke-width="1px"></line><line x1="232.03125" y1="0" x2="232.03125" y2="5" style="visibility: inherit;" fill="rgb(0, 0, 0)" stroke="rgb(204, 204, 204)" stroke-width="1px"></line><line x1="255.234375" y1="0" x2="255.234375" y2="5" style="visibility: inherit;" fill="rgb(0, 0, 0)" stroke="rgb(204, 204, 204)" stroke-width="1px"></line><line x1="278.4375" y1="0" x2="278.4375" y2="5" style="visibility: inherit;" fill="rgb(0, 0, 0)" stroke="rgb(204, 204, 204)" stroke-width="1px"></line></g><g transform="translate(0, 8)"><text x="0" y="0" dx="0em" dy="0.95em" style="text-anchor: middle; visibility: hidden; font-family: Roboto, sans-serif; font-size: 12px; font-weight: 200;" fill="rgb(255, 255, 255)" stroke="none" stroke-width="1px">-200k</text><text x="23.203125" y="0" dx="0em" dy="0.95em" style="text-anchor: middle; visibility: inherit; font-family: Roboto, sans-serif; font-size: 12px; font-weight: 200;" fill="rgb(255, 255, 255)" stroke="none" stroke-width="1px">0</text><text x="46.40625" y="0" dx="0em" dy="0.95em" style="text-anchor: middle; visibility: hidden; font-family: Roboto, sans-serif; font-size: 12px; font-weight: 200;" fill="rgb(255, 255, 255)" stroke="none" stroke-width="1px">200k</text><text x="69.609375" y="0" dx="0em" dy="0.95em" style="text-anchor: middle; visibility: inherit; font-family: Roboto, sans-serif; font-size: 12px; font-weight: 200;" fill="rgb(255, 255, 255)" stroke="none" stroke-width="1px">400k</text><text x="92.8125" y="0" dx="0em" dy="0.95em" style="text-anchor: middle; visibility: hidden; font-family: Roboto, sans-serif; font-size: 12px; font-weight: 200;" fill="rgb(255, 255, 255)" stroke="none" stroke-width="1px">600k</text><text x="116.015625" y="0" dx="0em" dy="0.95em" style="text-anchor: middle; visibility: inherit; font-family: Roboto, sans-serif; font-size: 12px; font-weight: 200;" fill="rgb(255, 255, 255)" stroke="none" stroke-width="1px">800k</text><text x="139.21875" y="0" dx="0em" dy="0.95em" style="text-anchor: middle; visibility: hidden; font-family: Roboto, sans-serif; font-size: 12px; font-weight: 200;" fill="rgb(255, 255, 255)" stroke="none" stroke-width="1px">1M</text><text x="162.421875" y="0" dx="0em" dy="0.95em" style="text-anchor: middle; visibility: inherit; font-family: Roboto, sans-serif; font-size: 12px; font-weight: 200;" fill="rgb(255, 255, 255)" stroke="none" stroke-width="1px">1.2M</text><text x="185.625" y="0" dx="0em" dy="0.95em" style="text-anchor: middle; visibility: hidden; font-family: Roboto, sans-serif; font-size: 12px; font-weight: 200;" fill="rgb(255, 255, 255)" stroke="none" stroke-width="1px">1.4M</text><text x="208.828125" y="0" dx="0em" dy="0.95em" style="text-anchor: middle; visibility: inherit; font-family: Roboto, sans-serif; font-size: 12px; font-weight: 200;" fill="rgb(255, 255, 255)" stroke="none" stroke-width="1px">1.6M</text><text x="232.03125" y="0" dx="0em" dy="0.95em" style="text-anchor: middle; visibility: hidden; font-family: Roboto, sans-serif; font-size: 12px; font-weight: 200;" fill="rgb(255, 255, 255)" stroke="none" stroke-width="1px">1.8M</text><text x="255.234375" y="0" dx="0em" dy="0.95em" style="text-anchor: middle; visibility: inherit; font-family: Roboto, sans-serif; font-size: 12px; font-weight: 200;" fill="rgb(255, 255, 255)" stroke="none" stroke-width="1px">2M</text><text x="278.4375" y="0" dx="0em" dy="0.95em" style="text-anchor: middle; visibility: hidden; font-family: Roboto, sans-serif; font-size: 12px; font-weight: 200;" fill="rgb(255, 255, 255)" stroke="none" stroke-width="1px">2.2M</text></g><line x1="0" y1="0" x2="278.4375" y2="0" fill="rgb(0, 0, 0)" stroke="rgb(204, 204, 204)" stroke-width="1px"></line></g></g></g></g></svg>