<svg viewBox="0 0 330 200" xmlns="http://www.w3.org/2000/svg"><g><g><g><g><g><line x1="51.5625" y1="177" x2="46.5625" y2="177" style="visibility: inherit;" fill="rgb(0, 0, 0)" stroke="rgb(204, 204, 204)" stroke-width="1px"></line><line x1="51.5625" y1="160.9090909090909" x2="46.5625" y2="160.9090909090909" style="visibility: inherit;" fill="rgb(0, 0, 0)" stroke="rgb(204, 204, 204)" stroke-width="1px"></line><line x1="51.5625" y1="144.8181818181818" x2="46.5625" y2="144.8181818181818" style="visibility: inherit;" fill="rgb(0, 0, 0)" stroke="rgb(204, 204, 204)" stroke-width="1px"></line><line x1="51.5625" y1="128.72727272727272" x2="46.5625" y2="128.72727272727272" style="visibility: inherit;" fill="rgb(0, 0, 0)" stroke="rgb(204, 204, 204)" stroke-width="1px"></line><line x1="51.5625" y1="112.63636363636364" x2="46.5625" y2="112.63636363636364" style="visibility: inherit;" fill="rgb(0, 0, 0)" stroke="rgb(204, 204, 204)" stroke-width="1px"></line><line x1="51.5625" y1="96.54545454545453" x2="46.5625" y2="96.54545454545453" style="visibility: inherit;" fill="rgb(0, 0, 0)" stroke="rgb(204, 204, 204)" stroke-width="1px"></line><line x1="51.5625" y1="80.45454545454544" x2="46.5625" y2="80.45454545454544" style="visibility: inherit;" fill="rgb(0, 0, 0)" stroke="rgb(204, 204, 204)" stroke-width="1px"></line><line x1="51.5625" y1="64.36363636363635" x2="46.5625" y2="64.36363636363635" style="visibility: inherit;" fill="rgb(0, 0, 0)" stroke="rgb(204, 204, 204)" stroke-width="1px"></line><line x1="51.5625" y1="48.272727272727266" x2="46.5625" y2="48.272727272727266" style="visibility: inherit;" fill="rgb(0, 0, 0)" stroke="rgb(204, 204, 204)" stroke-width="1px"></line><line x1="51.5625" y1="32.18181818181817" x2="46.5625" y2="32.18181818181817" style="visibility: inherit;" fill="rgb(0, 0, 0)" stroke="rgb(204, 204, 204)" stroke-width="1px"></line><line x1="51.5625" y1="16.090909090909076" x2="46.5625" y2="16.090909090909076" style="visibility: inherit;" fill="rgb(0, 0, 0)" stroke="rgb(204, 204, 204)" stroke-width="1px"></line><line x1="51.5625" y1="0" x2="46.5625" y2="0" style="visibility: inherit;" fill="rgb(0, 0, 0)" stroke="rgb(204, 204, 204)" stroke-width="1px"></line></g><g transform="translate(41.5625, 0)"><text x="0" y="177" dx="0em" dy="0.3em" style="text-anchor: end; visibility: hidden; font-family: Roboto, sans-serif; font-size: 12px; font-weight: 200;" fill="rgb(255, 255, 255)" stroke="none" stroke-width="1px">0.01</text><text x="0" y="160.9090909090909" dx="0em" dy="0.3em" style="text-anchor: end; visibility: inherit; font-family: Roboto, sans-serif; font-size: 12px; font-weight: 200;" fill="rgb(255, 255, 255)" stroke="none" stroke-width="1px">0.02</text><text x="0" y="144.8181818181818" dx="0em" dy="0.3em" style="text-anchor: end; visibility: hidden; font-family: Roboto, sans-serif; font-size: 12px; font-weight: 200;" fill="rgb(255, 255, 255)" stroke="none" stroke-width="1px">0.03</text><text x="0" y="128.72727272727272" dx="0em" dy="0.3em" style="text-anchor: end; visibility: inherit; font-family: Roboto, sans-serif; font-size: 12px; font-weight: 200;" fill="rgb(255, 255, 255)" stroke="none" stroke-width="1px">0.04</text><text x="0" y="112.63636363636364" dx="0em" dy="0.3em" style="text-anchor: end; visibility: hidden; font-family: Roboto, sans-serif; font-size: 12px; font-weight: 200;" fill="rgb(255, 255, 255)" stroke="none" stroke-width="1px">0.05</text><text x="0" y="96.54545454545453" dx="0em" dy="0.3em" style="text-anchor: end; visibility: inherit; font-family: Roboto, sans-serif; font-size: 12px; font-weight: 200;" fill="rgb(255, 255, 255)" stroke="none" stroke-width="1px">0.06</text><text x="0" y="80.45454545454544" dx="0em" dy="0.3em" style="text-anchor: end; visibility: hidden; font-family: Roboto, sans-serif; font-size: 12px; font-weight: 200;" fill="rgb(255, 255, 255)" stroke="none" stroke-width="1px">0.07</text><text x="0" y="64.36363636363635" dx="0em" dy="0.3em" style="text-anchor: end; visibility: inherit; font-family: Roboto, sans-serif; font-size: 12px; font-weight: 200;" fill="rgb(255, 255, 255)" stroke="none" stroke-width="1px">0.08</text><text x="0" y="48.272727272727266" dx="0em" dy="0.3em" style="text-anchor: end; visibility: hidden; font-family: Roboto, sans-serif; font-size: 12px; font-weight: 200;" fill="rgb(255, 255, 255)" stroke="none" stroke-width="1px">0.09</text><text x="0" y="32.18181818181817" dx="0em" dy="0.3em" style="text-anchor: end; visibility: inherit; font-family: Roboto, sans-serif; font-size: 12px; font-weight: 200;" fill="rgb(255, 255, 255)" stroke="none" stroke-width="1px">0.1</text><text x="0" y="16.090909090909076" dx="0em" dy="0.3em" style="text-anchor: end; visibility: hidden; font-family: Roboto, sans-serif; font-size: 12px; font-weight: 200;" fill="rgb(255, 255, 255)" stroke="none" stroke-width="1px">0.11</text><text x="0" y="0" dx="0em" dy="0.3em" style="text-anchor: end; visibility: hidden; font-family: Roboto, sans-serif; font-size: 12px; font-weight: 200;" fill="rgb(255, 255, 255)" stroke="none" stroke-width="1px">0.12</text></g><line x1="51.5625" y1="0" x2="51.5625" y2="177" fill="rgb(0, 0, 0)" stroke="rgb(204, 204, 204)" stroke-width="1px"></line></g></g><g transform="translate(51, 0)" clip-path="url(#clip_0)"><clipPath id="clip_0"><rect width="278" height="177"></rect></clipPath><g><g><g><line x1="0" y1="0" x2="0" y2="177" fill="rgb(0, 0, 0)" stroke="rgb(189, 189, 189)" stroke-width="1px" opacity="0.25"></line><line x1="23.203125" y1="0" x2="23.203125" y2="177" fill="rgb(0, 0, 0)" stroke="rgb(189, 189, 189)" stroke-width="1px" opacity="0.25"></line><line x1="46.40625" y1="0" x2="46.40625" y2="177" fill="rgb(0, 0, 0)" stroke="rgb(189, 189, 189)" stroke-width="1px" opacity="0.25"></line><line x1="69.609375" y1="0" x2="69.609375" y2="177" fill="rgb(0, 0, 0)" stroke="rgb(189, 189, 189)" stroke-width="1px" opacity="0.25"></line><line x1="92.8125" y1="0" x2="92.8125" y2="177" fill="rgb(0, 0, 0)" stroke="rgb(189, 189, 189)" stroke-width="1px" opacity="0.25"></line><line x1="116.015625" y1="0" x2="116.015625" y2="177" fill="rgb(0, 0, 0)" stroke="rgb(189, 189, 189)" stroke-width="1px" opacity="0.25"></line><line x1="139.21875" y1="0" x2="139.21875" y2="177" fill="rgb(0, 0, 0)" stroke="rgb(189, 189, 189)" stroke-width="1px" opacity="0.25"></line><line x1="162.421875" y1="0" x2="162.421875" y2="177" fill="rgb(0, 0, 0)" stroke="rgb(189, 189, 189)" stroke-width="1px" opacity="0.25"></line><line x1="185.625" y1="0" x2="185.625" y2="177" fill="rgb(0, 0, 0)" stroke="rgb(189, 189, 189)" stroke-width="1px" opacity="0.25"></line><line x1="208.828125" y1="0" x2="208.828125" y2="177" fill="rgb(0, 0, 0)" stroke="rgb(189, 189, 189)" stroke-width="1px" opacity="0.25"></line><line x1="232.03125" y1="0" x2="232.03125" y2="177" fill="rgb(0, 0, 0)" stroke="rgb(189, 189, 189)" stroke-width="1px" opacity="0.25"></line><line x1="255.234375" y1="0" x2="255.234375" y2="177" fill="rgb(0, 0, 0)" stroke="rgb(189, 189, 189)" stroke-width="1px" opacity="0.25"></line><line x1="278.4375" y1="0" x2="278.4375" y2="177" fill="rgb(0, 0, 0)" stroke="rgb(189, 189, 189)" stroke-width="1px" opacity="0.25"></line></g><g><line x1="0" y1="177" x2="278.4375" y2="177" fill="rgb(0, 0, 0)" stroke="rgb(189, 189, 189)" stroke-width="1px" opacity="0.25"></line><line x1="0" y1="160.9090909090909" x2="278.4375" y2="160.9090909090909" fill="rgb(0, 0, 0)" stroke="rgb(189, 189, 189)" stroke-width="1px" opacity="0.25"></line><line x1="0" y1="144.8181818181818" x2="278.4375" y2="144.8181818181818" fill="rgb(0, 0, 0)" stroke="rgb(189, 189, 189)" stroke-width="1px" opacity="0.25"></line><line x1="0" y1="128.72727272727272" x2="278.4375" y2="128.72727272727272" fill="rgb(0, 0, 0)" stroke="rgb(189, 189, 189)" stroke-width="1px" opacity="0.25"></line><line x1="0" y1="112.63636363636364" x2="278.4375" y2="112.63636363636364" fill="rgb(0, 0, 0)" stroke="rgb(189, 189, 189)" stroke-width="1px" opacity="0.25"></line><line x1="0" y1="96.54545454545453" x2="278.4375" y2="96.54545454545453" fill="rgb(0, 0, 0)" stroke="rgb(189, 189, 189)" stroke-width="1px" opacity="0.25"></line><line x1="0" y1="80.45454545454544" x2="278.4375" y2="80.45454545454544" fill="rgb(0, 0, 0)" stroke="rgb(189, 189, 189)" stroke-width="1px" opacity="0.25"></line><line x1="0" y1="64.36363636363635" x2="278.4375" y2="64.36363636363635" fill="rgb(0, 0, 0)" stroke="rgb(189, 189, 189)" stroke-width="1px" opacity="0.25"></line><line x1="0" y1="48.272727272727266" x2="278.4375" y2="48.272727272727266" fill="rgb(0, 0, 0)" stroke="rgb(189, 189, 189)" stroke-width="1px" opacity="0.25"></line><line x1="0" y1="32.18181818181817" x2="278.4375" y2="32.18181818181817" fill="rgb(0, 0, 0)" stroke="rgb(189, 189, 189)" stroke-width="1px" opacity="0.25"></line><line x1="0" y1="16.090909090909076" x2="278.4375" y2="16.090909090909076" fill="rgb(0, 0, 0)" stroke="rgb(189, 189, 189)" stroke-width="1px" opacity="0.25"></line><line x1="0" y1="0" x2="278.4375" y2="0" fill="rgb(0, 0, 0)" stroke="rgb(189, 189, 189)" stroke-width="1px" opacity="0.25"></line></g></g></g><g><g><line x1="0" y1="193.09090909090907" x2="278.4375" y2="193.09090909090907" fill="rgb(0, 0, 0)" stroke="rgb(153, 153, 153)" stroke-width="1.5px"></line></g></g><g><g><line x1="23.203125" y1="0" x2="23.203125" y2="177" fill="rgb(0, 0, 0)" stroke="rgb(153, 153, 153)" stroke-width="1.5px"></line></g></g><g><g><g><g><g><path stroke="rgb(255, 112, 67)" stroke-width="2px" d="M25.43805,193.09090909090907L26.555512500000003,124.67717792400624L27.672975,109.90031641146996L28.790437500000003,111.08701229368175L29.9079,117.36321070838308L31.025362499999996,124.87763174346873L32.142825,132.17182068331238L33.2602875,138.72672638128867L34.37775,144.41589033333628L35.4952125,141.93474690680122L36.612674999999996,142.2843363970352L37.7301375,143.29920048001122L38.71580625000001,137.4658587048506L38.8476,133.96878061566778L39.833268749999995,131.87158639422591L39.9650625,143.48855485258855L40.95073125,150.45747732638182L41.082525,154.63837781443678L42.06819375,150.71015622552144L42.1999875,148.353315192272L43.185656249999994,146.93924366197732L43.31745,146.09081265573488L43.93186875,132.7089691601624L44.434912499999996,111.80714006159488L45.04933125,99.26608063420063L45.344474999999996,85.30508978794676L45.9199125,76.92850442512146L46.4619375,71.90255649959556L47.037375,68.88698892946006L47.573831250000005,54.20491772381654L48.1548375,45.3956762468266L48.69129375,46.54649441031767L49.2723,47.23698527324188L49.80875625,47.651279778335024L50.3897625,47.899856476832845L50.926218750000004,48.04900249429057L51.507225,48.13849010417452L51.858056250000004,48.192182669892254L52.6246875,48.22439820924629L52.975518750000006,48.24372753283118L53.3746125,35.38260053351035L54.028012499999996,27.665924337878913L54.492075,23.035918621926054L55.145475,26.694277487170254L55.40720625,22.45293051203846L56.22395625,13.47176003325424L56.5191,8.083057746198806L57.34141875,17.72256096148348L57.6365625,36.37899227340692L58.45888125,47.57285106046449L58.754025,60.72552862631657L59.57634375,68.61713516580332L59.8714875,73.35209908948653L60.69380625,76.19307744369331L60.98895,90.77039144122048L61.811268749999996,99.51677983973327L62.1064125,104.76461287883967L62.92873125,107.91331270230305L63.223875,109.80253259638093L64.04619375,110.93606453282757L64.34133750000001,111.61618369469556L65.16365625,112.02425519181635L65.4588,118.7054627814547L66.28111874999999,122.71418733523768L66.5762625,125.11942206750746L67.39858124999999,139.43528989186876L67.693725,148.0248105864855L68.51604375,153.17852300325555L68.70166875,149.83438696081785L69.63350625000001,154.26426882785495L69.81913125,163.35856144057692L70.57833749999999,162.37877351571038L70.93659374999999,161.7909007607905L71.6958,161.43817710783853L72.05405625,161.22654291606736L72.8132625,161.09956240100465L73.17151875,161.023374091967L73.930725,160.97766110654445L74.28898125,160.95023331529092L75.0481875,160.9337766405388L75.40644375000001,160.9239026356875L76.16565,160.91797823277676L76.44594375,154.4780600985306L76.9638375,144.1777457254832L77.56340625,137.99755710165476L78.0813,134.28944392735772L78.68086875,132.06457602277945L79.1987625,130.72965528003255L79.79833124999999,123.49233814301851L80.1937125,112.71358556717655L80.91579375,106.24633402167137L81.31117499999999,102.36598309436827L81.5524875,87.16504555298701L82.42863750000001,84.48084532179179L82.66995,82.87032518307466L83.43658124999999,75.46765080621084L83.7874125,77.4624084737261L84.55404375,78.65926307423527L84.904875,72.94101354090719L85.67150625,69.51006382091035L85.86826875,61.015126899814106L86.69615625,55.918164747156375L86.98573125,52.859987455561736L87.81361875,51.02508108060493L88.10319374999999,49.924137255630875L88.93108124999999,49.26357096064642L89.22065625,48.867231183655754L89.85549375000001,48.62942731746135L90.27500625,54.923112086842856L90.97295625,58.69932294847175L91.39246874999999,60.9650494654491L91.9474875,49.451755992903806L92.49508125,42.54377990937663L93.06495,44.835356552893856L93.61254375,52.64666962810235L94.1824125,57.33345747322745L94.73000625,60.145530180302515L95.299875,74.70550078954693L95.84746875,83.44148315509361L96.36721875,82.24670788305576L96.7885875,81.52984271983304L96.98349375,68.22699423916772L97.67773125,60.24528515076852L98.10095625,61.89262678682716L98.60214375,56.44466467936419L99.21841875,59.61225450398455L99.71960625,61.51280839875677L100.33588125000001,62.65314073562011L100.83706875,63.33734013773812L101.45334375,63.74785977900893L101.94524999999999,57.557804474673254L102.55224375,47.40740899843831L103.0627125,47.753534006330874L103.66970624999999,47.9612090110664L104.18017499999999,48.08581401390776L104.38250624999999,41.724214721979L105.19183124999999,44.3436174404553L105.47026874999999,45.91525907154109L106.30929375000001,46.85824405019254L106.58773125,47.42403503738342L107.42675625,47.76350962969792L107.68663125,41.53083209145309L108.54421875,37.79122556850621L108.71499375,29.111099361104532L109.55773125,23.903023636663512L109.77676875,20.778178201998916L110.6065125,25.33963323483369L110.78656875,21.640143960901018L111.055725,19.420450396541433L111.90403124999999,24.52499655155923L112.06738125,21.151361950936344L112.9750875,12.690818896929068L113.18484375,7.6144930645247015L114.09255,4.568697565082075L114.30230625,2.74122026541649L115.2100125,8.081096179250684L115.41234374999999,11.285021727551225L116.32190625,6.77101476289798L116.505675,4.062610584106046L117.43936875,2.437568076830865L117.6231375,7.898904866099329L118.55683125,17.612069233293976L118.7406,23.439967853610714L119.67429375,26.936707025800764L119.8580625,29.03475052911481L120.74720624999999,23.8572143374697L120.97552499999999,27.18705491611618L121.84981875,22.748596969670523L122.06885625,26.521884495436677L122.96728125,35.2222193045299L123.18631875,46.878787279084L124.08474375,60.30909035744998L124.30378125,74.80363689583544L125.02400625,77.06400012750088L125.26160625,71.98385577286655L126.14146875,75.37213145371952L126.37906875,83.84146155359714L126.9340875,82.4866949221579L127.45198124999999,81.67383494329435L128.05155,81.1861189559762L128.56944375,80.8934893635853L129.1690125,87.15427629951664L129.68690625,97.34711075470898L130.286475,103.46281142782439L130.78951875,100.69586953806008L131.40393749999998,99.03570440420148L131.9014125,91.60324063252051L132.5214,87.1437623695119L133.018875,78.0317131180732L133.6388625,72.56448356720996L133.85975625,69.28414583669202L134.3813625,67.31594319838126L134.97721875,72.57138390902837L135.498825,75.7246483354166L136.08725625,71.18024469761599L136.6162875,68.45360251493564L137.20471875,66.81761720532742L137.73375,65.8360260195625L138.32218125,71.6834336017371L138.8512125,81.6282428424077L139.43964375,87.59512838681006L139.968675,91.17525971345148L140.55710624999998,99.75970080306989L141.08613749999998,104.91036545684094L141.67456875000002,108.00076424910357L142.07551875000001,103.41864123082759L142.79203125,100.669367419862L143.0983125,92.5834384419168L143.90949375,87.73188105514967L144.215775,91.25731131445525L145.02695624999998,93.3725694700386L145.3332375,101.07808665702215L146.14441875,105.70139696921231L146.43399375,108.47538315652636L147.26188125,110.13977486891481L147.55145625,117.57477458771375L148.37934375,122.03577441899309L148.66891875,124.71237431776069L149.49680625,126.31833425702125L149.78638124999998,133.71827371307728L150.4008,131.72187389421123L150.90384375000002,124.08766931152573L151.04863125,106.63441957691504L152.02130625,96.16246973614864L152.16609375,89.87929983168877L153.13876875,86.10939788901284L153.28355625,83.84745672340732L154.25623124999998,82.49029202404398L154.40101875,81.67599320442599L155.37369375,81.1874139126552L155.51848125,87.33063102895856L156.318525,84.58019660737475L156.63594375,89.36630064579029L157.19653125,85.80159837747378L157.655025,83.66277701648386L158.31399374999998,82.37948419988992L158.7724875,81.60950850993355L159.43145625,81.14752309595971L159.88995,87.30669653894127L160.54891875,91.0022006047302L161.0074125,93.21950304420356L161.575425,88.11351981652173L162.124875,85.04992987991265L162.69288749999998,83.21177591794716L163.24233750000002,82.1088835407679L163.51149375,81.44714811446033L164.3598,87.48647155004166L164.62895625000002,103.98279259638983L165.43085625,107.44422053283289L165.74641875,109.52107729469873L166.3756875,104.33082905818468L166.86388125,101.21668011627625L167.1627375,92.91182605976535L167.9052375,75.05618424312709L168.2802,64.34279915314416L168.6106125,51.47840580552086L169.3976625,50.196132090580384L169.59256875,42.9904055679826L170.23668750000002,38.6669696544239L170.71003125,36.072908106288715L171.33001875,28.080108883774034L171.82749375,23.284429350265235L172.44748125,20.407021630159935L172.94495625000002,18.680576998096765L173.56494375,17.644710218858858L174.06241875,17.023190151316125L174.41324999999998,10.213915817156932L175.059225,6.128351216661405L175.53071250000002,3.6770124563640803L176.1766875,2.206209200185701L176.648175,7.760089540112235L177.29415,11.09241774406814L177.63755625,0.21909007917458L178.3373625,0.13145577387199736L178.75501875,0.07887519069043991L179.454825,6.483689134415054L179.87248125,10.326577500649835L180.26971874999998,12.6323105203907L180.91755,26.888474919502308L181.38718125,35.4421735589693L182.0350125,47.01075983174762L182.50464375,53.951911595414614L183.15247499999998,64.55296494724836L183.62210625,77.34996164971447L184.26993750000003,85.02815967119412L184.73956875,96.07144077771547L185.25375,89.82468245662889L185.53033125,79.64026517034335L186.2746875,67.0932477094739L186.64779375,59.56503723295225L187.39215000000002,55.04811094703925L187.76525625000002,65.21068455822315L188.48919375,64.87186643129994L188.7397875,58.23220846604786L189.60665625000001,54.248413686896605L189.85725,51.85813681940587L190.72411875,50.42397069891141L190.9747125,62.43620040934644L191.84158125,69.64353823560747L192.092175,73.96794093136407L192.86623125,70.12622025518448L193.2096375,67.82118784947674L193.72753125,66.43816840605207L194.23614375,65.6083567399973L194.56284374999998,58.67410265126627L195.2366625,54.51355019802765L195.68030625,52.017218726084494L196.354125,50.51941984291859L196.79776875000002,49.62074051301904L197.42889375000001,42.64517062144578L197.91523125,38.45982868650182L198.54635625,48.821352908267144L199.03269375,61.474629734959876L199.66381875,75.50296052234135L200.15015625,83.91995899477027L200.68846875,82.53379338686177L201.26761875,81.70209402211664L201.80593125,87.63943909463542L202.1493375,91.20184613814672L202.92339375,93.33929036425349L203.26680000000002,94.62175689991751L204.04085625000002,95.39123682131596L204.3842625,95.85292477415503L205.0228125,89.69357285449263L205.501725,85.99796170269516L206.140275,90.21695970298254L206.6191875,92.74835850315495L207.25773750000002,100.70356007689199L207.73665,105.47668102113417L208.3752,114.77691827904535L208.85411249999999,120.35706063379206L209.4926625,123.70514604664007L209.971575,125.71399729434887L210.61012499999998,126.91930804297418L211.08903750000002,134.07885798464906L211.72758750000003,138.37458794965394L212.2065,140.9520259286569L212.84505000000001,142.49848871605872L213.3239625,143.42636638849976L213.9625125,143.98309299196438L214.44142499999998,150.75349244654288L215.079975,154.81573211928995L215.55888750000003,157.25307592293822L216.19743749999998,165.15184569762687L216.58539375,163.45474406994035L217.14969374999998,162.43648309332846L217.70285625,161.8255265073613L218.26715625,161.45895255578105L218.82031874999998,167.67537167733255L219.38461875000002,171.40522315026345L219.93778125,173.643134034022L220.50208125,174.98588056427715L220.89560625000001,169.35516498993053L221.153625,159.54037215282287L222.01306875,153.65149645055826L222.2710875,150.1181710291995L223.13053125,147.99817577638424L223.38854999999998,146.72617862469508L224.15518125,139.5266168411819L224.49858749999999,135.206879771074L225.27264375000001,132.61503752900924L225.61605,131.0599321837704L226.39010625,130.1268689766271L226.7335125,129.5670310523411L227.47786875,122.79476360640366L227.850975,118.73140313884119L228.24264375,109.85702456467016L228.96843750000002,104.53239742016753L229.20418125,94.90125644210013L229.71279375,82.68620956162611L230.23625625,75.35718143334171L230.83025625,70.95976455637106L231.35371874999998,68.32131443018869L231.94771874999998,66.73824435447926L232.47118125,65.78840230905361L232.71249375,58.782129992700064L233.58864375000002,54.578366602887925L233.82995624999998,58.4924756580988L234.64670625,60.84094109122532L234.86945624999998,55.81365326200308L235.42261875,46.360918270836194L235.98691875,40.68927727613605L236.54008125,37.286292679316L237.10438125000002,41.68086421485749L237.65754375,44.317607136182396L238.22184375,45.899652888977336L238.77500625,46.84888034065429L239.33930625,47.41841681166046L239.89246875,47.760138694264164L240.45676875,54.40153891292452L241.00993125,58.38637904412076L241.57423125,67.21364541647206L242.12739375,72.51000523988282L242.67498750000001,75.6878211339293L243.1242,84.03087536172303L243.71077499999998,82.60034320703342L243.9149625,81.74202391421966L244.76326874999998,74.79067004489782L244.95260625,64.18349063420656L245.86216875000002,51.38282069415829L246.027375,50.138781023762846L246.97963125,49.39235722152561L247.14483750000002,48.94450294018328L247.59405,48.67579037137787L248.11565625,48.51456283009463L248.49433125000002,54.854193394422836L249.23311875,58.65797173301974L249.61179375,60.940238736177896L250.35058124999998,62.30959893807279L250.72925625,63.13121505920972L251.46804375000002,57.187817642793725L251.84671874999998,53.62177919294413L252.58550625,51.48215612303436L252.96418125,50.19838228108851L253.70296875,49.428117975921005L254.08164375,48.9659593928205L254.82043124999998,48.6886642429602L255.19910625,48.52228715304402" style="fill: none;" fill="none"></path></g></g></g></g><g opacity="0.2"><g><g><g><path stroke="rgb(255, 112, 67)" stroke-width="2px" d="M25.43805,193.09090909090907L26.555512500000003,58.999996003779486L27.672975,92.52272727272727L28.790437500000003,112.63636243749748L29.9079,126.0454525473443L31.025362499999996,135.62337405437773L32.142825,142.8068181818182L33.2602875,148.393939060921L34.37775,152.86363576420328L35.4952125,138.23553555526516L36.612674999999996,142.8068181818182L37.7301375,144.81818289716136L38.71580625000001,128.72727416591212L38.8476,128.72727416591212L39.833268749999995,128.72727416591212L39.9650625,160.9090916284106L40.95073125,160.9090916284106L41.082525,160.9090916284106L42.06819375,144.81818289716136L42.1999875,144.81818289716136L43.185656249999994,144.81818289716136L43.31745,144.81818289716136L43.93186875,112.63636243749748L44.434912499999996,80.45454497499901L45.04933125,80.45454497499901L45.344474999999996,64.36363924091512L45.9199125,64.36363924091512L46.4619375,64.36363924091512L47.037375,64.36363924091512L47.573831250000005,32.18181578408588L48.1548375,32.18181578408588L48.69129375,48.27272151816975L49.2723,48.27272151816975L49.80875625,48.27272151816975L50.3897625,48.27272151816975L50.926218750000004,48.27272151816975L51.507225,48.27272151816975L51.858056250000004,48.27272151816975L52.6246875,48.27272151816975L52.975518750000006,48.27272151816975L53.3746125,16.090910050002005L54.028012499999996,16.090910050002005L54.492075,16.090910050002005L55.145475,32.18181578408588L55.40720625,16.090910050002005L56.22395625,0.000004315918133213081L56.5191,0.000004315918133213081L57.34141875,32.18181578408588L57.6365625,64.36363924091512L58.45888125,64.36363924091512L58.754025,80.45454497499901L59.57634375,80.45454497499901L59.8714875,80.45454497499901L60.69380625,80.45454497499901L60.98895,112.63636243749748L61.811268749999996,112.63636243749748L62.1064125,112.63636243749748L62.92873125,112.63636243749748L63.223875,112.63636243749748L64.04619375,112.63636243749748L64.34133750000001,112.63636243749748L65.16365625,112.63636243749748L65.4588,128.72727416591212L66.28111874999999,128.72727416591212L66.5762625,128.72727416591212L67.39858124999999,160.9090916284106L67.693725,160.9090916284106L68.51604375,160.9090916284106L68.70166875,144.81818289716136L69.63350625000001,160.9090916284106L69.81913125,177.00000035965985L70.57833749999999,160.9090916284106L70.93659374999999,160.9090916284106L71.6958,160.9090916284106L72.05405625,160.9090916284106L72.8132625,160.9090916284106L73.17151875,160.9090916284106L73.930725,160.9090916284106L74.28898125,160.9090916284106L75.0481875,160.9090916284106L75.40644375000001,160.9090916284106L76.16565,160.9090916284106L76.44594375,144.81818289716136L76.9638375,128.72727416591212L77.56340625,128.72727416591212L78.0813,128.72727416591212L78.68086875,128.72727416591212L79.1987625,128.72727416591212L79.79833124999999,112.63636243749748L80.1937125,96.54545670341363L80.91579375,96.54545670341363L81.31117499999999,96.54545670341363L81.5524875,64.36363924091512L82.42863750000001,80.45454497499901L82.66995,80.45454497499901L83.43658124999999,64.36363924091512L83.7874125,80.45454497499901L84.55404375,80.45454497499901L84.904875,64.36363924091512L85.67150625,64.36363924091512L85.86826875,48.27272151816975L86.69615625,48.27272151816975L86.98573125,48.27272151816975L87.81361875,48.27272151816975L88.10319374999999,48.27272151816975L88.93108124999999,48.27272151816975L89.22065625,48.27272151816975L89.85549375000001,48.27272151816975L90.27500625,64.36363924091512L90.97295625,64.36363924091512L91.39246874999999,64.36363924091512L91.9474875,32.18181578408588L92.49508125,32.18181578408588L93.06495,48.27272151816975L93.61254375,64.36363924091512L94.1824125,64.36363924091512L94.73000625,64.36363924091512L95.299875,96.54545670341363L95.84746875,96.54545670341363L96.36721875,80.45454497499901L96.7885875,80.45454497499901L96.98349375,48.27272151816975L97.67773125,48.27272151816975L98.10095625,64.36363924091512L98.60214375,48.27272151816975L99.21841875,64.36363924091512L99.71960625,64.36363924091512L100.33588125000001,64.36363924091512L100.83706875,64.36363924091512L101.45334375,64.36363924091512L101.94524999999999,48.27272151816975L102.55224375,32.18181578408588L103.0627125,48.27272151816975L103.66970624999999,48.27272151816975L104.18017499999999,48.27272151816975L104.38250624999999,32.18181578408588L105.19183124999999,48.27272151816975L105.47026874999999,48.27272151816975L106.30929375000001,48.27272151816975L106.58773125,48.27272151816975L107.42675625,48.27272151816975L107.68663125,32.18181578408588L108.54421875,32.18181578408588L108.71499375,16.090910050002005L109.55773125,16.090910050002005L109.77676875,16.090910050002005L110.6065125,32.18181578408588L110.78656875,16.090910050002005L111.055725,16.090910050002005L111.90403124999999,32.18181578408588L112.06738125,16.090910050002005L112.9750875,0.000004315918133213081L113.18484375,0.000004315918133213081L114.09255,0.000004315918133213081L114.30230625,0.000004315918133213081L115.2100125,16.090910050002005L115.41234374999999,16.090910050002005L116.32190625,0.000004315918133213081L116.505675,0.000004315918133213081L117.43936875,0.000004315918133213081L117.6231375,16.090910050002005L118.55683125,32.18181578408588L118.7406,32.18181578408588L119.67429375,32.18181578408588L119.8580625,32.18181578408588L120.74720624999999,16.090910050002005L120.97552499999999,32.18181578408588L121.84981875,16.090910050002005L122.06885625,32.18181578408588L122.96728125,48.27272151816975L123.18631875,64.36363924091512L124.08474375,80.45454497499901L124.30378125,96.54545670341363L125.02400625,80.45454497499901L125.26160625,64.36363924091512L126.14146875,80.45454497499901L126.37906875,96.54545670341363L126.9340875,80.45454497499901L127.45198124999999,80.45454497499901L128.05155,80.45454497499901L128.56944375,80.45454497499901L129.1690125,96.54545670341363L129.68690625,112.63636243749748L130.286475,112.63636243749748L130.78951875,96.54545670341363L131.40393749999998,96.54545670341363L131.9014125,80.45454497499901L132.5214,80.45454497499901L133.018875,64.36363924091512L133.6388625,64.36363924091512L133.85975625,64.36363924091512L134.3813625,64.36363924091512L134.97721875,80.45454497499901L135.498825,80.45454497499901L136.08725625,64.36363924091512L136.6162875,64.36363924091512L137.20471875,64.36363924091512L137.73375,64.36363924091512L138.32218125,80.45454497499901L138.8512125,96.54545670341363L139.43964375,96.54545670341363L139.968675,96.54545670341363L140.55710624999998,112.63636243749748L141.08613749999998,112.63636243749748L141.67456875000002,112.63636243749748L142.07551875000001,96.54545670341363L142.79203125,96.54545670341363L143.0983125,80.45454497499901L143.90949375,80.45454497499901L144.215775,96.54545670341363L145.02695624999998,96.54545670341363L145.3332375,112.63636243749748L146.14441875,112.63636243749748L146.43399375,112.63636243749748L147.26188125,112.63636243749748L147.55145625,128.72727416591212L148.37934375,128.72727416591212L148.66891875,128.72727416591212L149.49680625,128.72727416591212L149.78638124999998,144.81818289716136L150.4008,128.72727416591212L150.90384375000002,112.63636243749748L151.04863125,80.45454497499901L152.02130625,80.45454497499901L152.16609375,80.45454497499901L153.13876875,80.45454497499901L153.28355625,80.45454497499901L154.25623124999998,80.45454497499901L154.40101875,80.45454497499901L155.37369375,80.45454497499901L155.51848125,96.54545670341363L156.318525,80.45454497499901L156.63594375,96.54545670341363L157.19653125,80.45454497499901L157.655025,80.45454497499901L158.31399374999998,80.45454497499901L158.7724875,80.45454497499901L159.43145625,80.45454497499901L159.88995,96.54545670341363L160.54891875,96.54545670341363L161.0074125,96.54545670341363L161.575425,80.45454497499901L162.124875,80.45454497499901L162.69288749999998,80.45454497499901L163.24233750000002,80.45454497499901L163.51149375,80.45454497499901L164.3598,96.54545670341363L164.62895625000002,128.72727416591212L165.43085625,112.63636243749748L165.74641875,112.63636243749748L166.3756875,96.54545670341363L166.86388125,96.54545670341363L167.1627375,80.45454497499901L167.9052375,48.27272151816975L168.2802,48.27272151816975L168.6106125,32.18181578408588L169.3976625,48.27272151816975L169.59256875,32.18181578408588L170.23668750000002,32.18181578408588L170.71003125,32.18181578408588L171.33001875,16.090910050002005L171.82749375,16.090910050002005L172.44748125,16.090910050002005L172.94495625000002,16.090910050002005L173.56494375,16.090910050002005L174.06241875,16.090910050002005L174.41324999999998,0.000004315918133213081L175.059225,0.000004315918133213081L175.53071250000002,0.000004315918133213081L176.1766875,0.000004315918133213081L176.648175,16.090910050002005L177.29415,16.090910050002005L177.63755625,-16.09090141816572L178.3373625,0.000004315918133213081L178.75501875,0.000004315918133213081L179.454825,16.090910050002005L179.87248125,16.090910050002005L180.26971874999998,16.090910050002005L180.91755,48.27272151816975L181.38718125,48.27272151816975L182.0350125,64.36363924091512L182.50464375,64.36363924091512L183.15247499999998,80.45454497499901L183.62210625,96.54545670341363L184.26993750000003,96.54545670341363L184.73956875,112.63636243749748L185.25375,80.45454497499901L185.53033125,64.36363924091512L186.2746875,48.27272151816975L186.64779375,48.27272151816975L187.39215000000002,48.27272151816975L187.76525625000002,80.45454497499901L188.48919375,64.36363924091512L188.7397875,48.27272151816975L189.60665625000001,48.27272151816975L189.85725,48.27272151816975L190.72411875,48.27272151816975L190.9747125,80.45454497499901L191.84158125,80.45454497499901L192.092175,80.45454497499901L192.86623125,64.36363924091512L193.2096375,64.36363924091512L193.72753125,64.36363924091512L194.23614375,64.36363924091512L194.56284374999998,48.27272151816975L195.2366625,48.27272151816975L195.68030625,48.27272151816975L196.354125,48.27272151816975L196.79776875000002,48.27272151816975L197.42889375000001,32.18181578408588L197.91523125,32.18181578408588L198.54635625,64.36363924091512L199.03269375,80.45454497499901L199.66381875,96.54545670341363L200.15015625,96.54545670341363L200.68846875,80.45454497499901L201.26761875,80.45454497499901L201.80593125,96.54545670341363L202.1493375,96.54545670341363L202.92339375,96.54545670341363L203.26680000000002,96.54545670341363L204.04085625000002,96.54545670341363L204.3842625,96.54545670341363L205.0228125,80.45454497499901L205.501725,80.45454497499901L206.140275,96.54545670341363L206.6191875,96.54545670341363L207.25773750000002,112.63636243749748L207.73665,112.63636243749748L208.3752,128.72727416591212L208.85411249999999,128.72727416591212L209.4926625,128.72727416591212L209.971575,128.72727416591212L210.61012499999998,128.72727416591212L211.08903750000002,144.81818289716136L211.72758750000003,144.81818289716136L212.2065,144.81818289716136L212.84505000000001,144.81818289716136L213.3239625,144.81818289716136L213.9625125,144.81818289716136L214.44142499999998,160.9090916284106L215.079975,160.9090916284106L215.55888750000003,160.9090916284106L216.19743749999998,177.00000035965985L216.58539375,160.9090916284106L217.14969374999998,160.9090916284106L217.70285625,160.9090916284106L218.26715625,160.9090916284106L218.82031874999998,177.00000035965985L220.50208125,177.00000035965985L220.89560625000001,160.9090916284106L221.153625,144.81818289716136L222.01306875,144.81818289716136L222.2710875,144.81818289716136L223.13053125,144.81818289716136L223.38854999999998,144.81818289716136L224.15518125,128.72727416591212L224.49858749999999,128.72727416591212L225.27264375000001,128.72727416591212L225.61605,128.72727416591212L226.39010625,128.72727416591212L226.7335125,128.72727416591212L227.47786875,112.63636243749748L227.850975,112.63636243749748L228.24264375,96.54545670341363L228.96843750000002,96.54545670341363L229.20418125,80.45454497499901L229.71279375,64.36363924091512L230.23625625,64.36363924091512L230.83025625,64.36363924091512L231.35371874999998,64.36363924091512L231.94771874999998,64.36363924091512L232.47118125,64.36363924091512L232.71249375,48.27272151816975L233.58864375000002,48.27272151816975L233.82995624999998,64.36363924091512L234.64670625,64.36363924091512L234.86945624999998,48.27272151816975L235.42261875,32.18181578408588L235.98691875,32.18181578408588L236.54008125,32.18181578408588L237.10438125000002,48.27272151816975L237.65754375,48.27272151816975L238.22184375,48.27272151816975L238.77500625,48.27272151816975L239.33930625,48.27272151816975L239.89246875,48.27272151816975L240.45676875,64.36363924091512L241.00993125,64.36363924091512L241.57423125,80.45454497499901L242.12739375,80.45454497499901L242.67498750000001,80.45454497499901L243.1242,96.54545670341363L243.71077499999998,80.45454497499901L243.9149625,80.45454497499901L244.76326874999998,64.36363924091512L244.95260625,48.27272151816975L245.86216875000002,32.18181578408588L246.027375,48.27272151816975L246.97963125,48.27272151816975L247.14483750000002,48.27272151816975L247.59405,48.27272151816975L248.11565625,48.27272151816975L248.49433125000002,64.36363924091512L249.23311875,64.36363924091512L249.61179375,64.36363924091512L250.35058124999998,64.36363924091512L250.72925625,64.36363924091512L251.46804375000002,48.27272151816975L251.84671874999998,48.27272151816975L252.58550625,48.27272151816975L252.96418125,48.27272151816975L253.70296875,48.27272151816975L254.08164375,48.27272151816975L254.82043124999998,48.27272151816975L255.19910625,48.27272151816975" style="fill: none;" fill="none"></path></g></g></g></g></g></g><g transform="translate(51, 177)" clip-path="url(#clip_1)"><clipPath id="clip_1"><rect width="278" height="23"></rect></clipPath><g><g><line x1="0" y1="0" x2="0" y2="5" style="visibility: inherit;" fill="rgb(0, 0, 0)" stroke="rgb(204, 204, 204)" stroke-width="1px"></line><line x1="23.203125" y1="0" x2="23.203125" y2="5" style="visibility: inherit;" fill="rgb(0, 0, 0)" stroke="rgb(204, 204, 204)" stroke-width="1px"></line><line x1="46.40625" y1="0" x2="46.40625" y2="5" style="visibility: inherit;" fill="rgb(0, 0, 0)" stroke="rgb(204, 204, 204)" stroke-width="1px"></line><line x1="69.609375" y1="0" x2="69.609375" y2="5" style="visibility: inherit;" fill="rgb(0, 0, 0)" stroke="rgb(204, 204, 204)" stroke-width="1px"></line><line x1="92.8125" y1="0" x2="92.8125" y2="5" style="visibility: inherit;" fill="rgb(0, 0, 0)" stroke="rgb(204, 204, 204)" stroke-width="1px"></line><line x1="116.015625" y1="0" x2="116.015625" y2="5" style="visibility: inherit;" fill="rgb(0, 0, 0)" stroke="rgb(204, 204, 204)" stroke-width="1px"></line><line x1="139.21875" y1="0" x2="139.21875" y2="5" style="visibility: inherit;" fill="rgb(0, 0, 0)" stroke="rgb(204, 204, 204)" stroke-width="1px"></line><line x1="162.421875" y1="0" x2="162.421875" y2="5" style="visibility: inherit;" fill="rgb(0, 0, 0)" stroke="rgb(204, 204, 204)" stroke-width="1px"></line><line x1="185.625" y1="0" x2="185.625" y2="5" style="visibility: inherit;" fill="rgb(0, 0, 0)" stroke="rgb(204, 204, 204)" stroke-width="1px"></line><line x1="208.828125" y1="0" x2="208.828125" y2="5" style="visibility: inherit;" fill="rgb(0, 0, 0)" stroke="rgb(204, 204, 204)" stroke-width="1px"></line><line x1="232.03125" y1="0" x2="232.03125" y2="5" style="visibility: inherit;" fill="rgb(0, 0, 0)" stroke="rgb(204, 204, 204)" stroke-width="1px"></line><line x1="255.234375" y1="0" x2="255.234375" y2="5" style="visibility: inherit;" fill="rgb(0, 0, 0)" stroke="rgb(204, 204, 204)" stroke-width="1px"></line><line x1="278.4375" y1="0" x2="278.4375" y2="5" style="visibility: inherit;" fill="rgb(0, 0, 0)" stroke="rgb(204, 204, 204)" stroke-width="1px"></line></g><g transform="translate(0, 8)"><text x="0" y="0" dx="0em" dy="0.95em" style="text-anchor: middle; visibility: hidden; font-family: Roboto, sans-serif; font-size: 12px; font-weight: 200;" fill="rgb(255, 255, 255)" stroke="none" stroke-width="1px">-100k</text><text x="23.203125" y="0" dx="0em" dy="0.95em" style="text-anchor: middle; visibility: inherit; font-family: Roboto, sans-serif; font-size: 12px; font-weight: 200;" fill="rgb(255, 255, 255)" stroke="none" stroke-width="1px">0</text><text x="46.40625" y="0" dx="0em" dy="0.95em" style="text-anchor: middle; visibility: hidden; font-family: Roboto, sans-serif; font-size: 12px; font-weight: 200;" fill="rgb(255, 255, 255)" stroke="none" stroke-width="1px">100k</text><text x="69.609375" y="0" dx="0em" dy="0.95em" style="text-anchor: middle; visibility: inherit; font-family: Roboto, sans-serif; font-size: 12px; font-weight: 200;" fill="rgb(255, 255, 255)" stroke="none" stroke-width="1px">200k</text><text x="92.8125" y="0" dx="0em" dy="0.95em" style="text-anchor: middle; visibility: hidden; font-family: Roboto, sans-serif; font-size: 12px; font-weight: 200;" fill="rgb(255, 255, 255)" stroke="none" stroke-width="1px">300k</text><text x="116.015625" y="0" dx="0em" dy="0.95em" style="text-anchor: middle; visibility: inherit; font-family: Roboto, sans-serif; font-size: 12px; font-weight: 200;" fill="rgb(255, 255, 255)" stroke="none" stroke-width="1px">400k</text><text x="139.21875" y="0" dx="0em" dy="0.95em" style="text-anchor: middle; visibility: hidden; font-family: Roboto, sans-serif; font-size: 12px; font-weight: 200;" fill="rgb(255, 255, 255)" stroke="none" stroke-width="1px">500k</text><text x="162.421875" y="0" dx="0em" dy="0.95em" style="text-anchor: middle; visibility: inherit; font-family: Roboto, sans-serif; font-size: 12px; font-weight: 200;" fill="rgb(255, 255, 255)" stroke="none" stroke-width="1px">600k</text><text x="185.625" y="0" dx="0em" dy="0.95em" style="text-anchor: middle; visibility: hidden; font-family: Roboto, sans-serif; font-size: 12px; font-weight: 200;" fill="rgb(255, 255, 255)" stroke="none" stroke-width="1px">700k</text><text x="208.828125" y="0" dx="0em" dy="0.95em" style="text-anchor: middle; visibility: inherit; font-family: Roboto, sans-serif; font-size: 12px; font-weight: 200;" fill="rgb(255, 255, 255)" stroke="none" stroke-width="1px">800k</text><text x="232.03125" y="0" dx="0em" dy="0.95em" style="text-anchor: middle; visibility: hidden; font-family: Roboto, sans-serif; font-size: 12px; font-weight: 200;" fill="rgb(255, 255, 255)" stroke="none" stroke-width="1px">900k</text><text x="255.234375" y="0" dx="0em" dy="0.95em" style="text-anchor: middle; visibility: inherit; font-family: Roboto, sans-serif; font-size: 12px; font-weight: 200;" fill="rgb(255, 255, 255)" stroke="none" stroke-width="1px">1M</text><text x="278.4375" y="0" dx="0em" dy="0.95em" style="text-anchor: middle; visibility: hidden; font-family: Roboto, sans-serif; font-size: 12px; font-weight: 200;" fill="rgb(255, 255, 255)" stroke="none" stroke-width="1px">1.1M</text></g><line x1="0" y1="0" x2="278.4375" y2="0" fill="rgb(0, 0, 0)" stroke="rgb(204, 204, 204)" stroke-width="1px"></line></g></g></g></g></svg>